<?xml version="1.0" encoding="UTF-8"?>
<svg xmlns="http://www.w3.org/2000/svg" version="1.1" viewBox="0 0 470.1 303.8">
  <defs>
    <style>
      .cls-1, .cls-2 {
        fill: #ed1c24;
      }

      .cls-2 {
        fill-rule: evenodd;
      }
    </style>
  </defs>
  <!-- Generator: Adobe Illustrator 28.7.1, SVG Export Plug-In . SVG Version: 1.2.0 Build 142)  -->
  <g>
    <g id="Layer_1">
      <g id="Layer_1-2" data-name="Layer_1">
        <g>
          <path class="cls-2" d="M284.3,251.4h109.1c-.7-2.9-6.5-14.9-8.2-18.3-1.3-2.5-7.2-17.5-9-17.5h-63.4v-44.8h43.2c-.9-3.9-7.4-14.7-7.4-17.6s6.5-13.4,7.4-17.2h-43.2v-45.3h64.4l16.2-35.3h-109.1v195.9h0Z"/>
          <path class="cls-2" d="M161.2,150.4v10.5c0,23.7,8.7,47.9,18.5,62.1,11.5,16.7,26.1,30.2,46.4,34.5,3.2.7,9.5,1.3,16.1,1,9.1-.4,18.7-2.1,21.8-3.7v-38.1c-4.8,2.5-9.3,5.4-14.5,6.8-17.1,4.7-33.5-4.5-44-17.5-1.2-1.5-2.4-3.1-3.6-4.8-8.2-11.9-12.6-26.3-12.6-46s6.9-32.9,13.4-42.3c6.3-9.1,15.4-17.6,26.2-20.8,6.2-1.8,13.4-1.7,19.6-.1,5.6,1.4,10.4,4.4,15.5,7v-38.6c-3.5-1.2-8.4-2.6-12.3-3.3-5-.9-9-1.4-14.7-1.4-42.6,0-75.7,52-75.7,94.9"/>
          <path class="cls-2" d="M.4,261.5h71.8c-.6-1.6-5.2-5.4-6.8-7.4-2.2-2.9-4-5.9-5.5-9.2-3.1-7.1-5.5-13.7-5.5-23.9v-7.3c0-10.8,6.3-23.2,11.1-29.7,5.6-7.5,14.4-13.9,27.5-13.9h.5c20.5,0,35.6,26,35.6,47.5v3.4c0,8.9-2.5,17.8-5.6,23.8-1.8,3.5-3.2,6.3-5.5,9.3-2.2,3-5.8,5.6-7.2,7.5l72-.2L91.6,54.3.4,261.5h0Z"/>
          <g>
            <path class="cls-1" d="M0,303.8l10.3-37h14.5l9.3,37h-11.2l-1.7-7.5h-10.1l-2,7.5H0ZM12.6,289.8h7.1l-3.2-15.1-3.9,15.1Z"/>
            <path class="cls-1" d="M67.7,279.7h-10.3c0-1.7-.3-3.1-.9-4.3-.8-1.6-2.1-2.4-3.8-2.4s-3.6,1.2-4.4,3.6c-.7,1.9-1,4.8-1,8.8s.3,7.5.9,9c.8,2.2,2.4,3.3,4.8,3.3s3.3-.7,4.1-2c.7-1.1,1-3,1-5.5l9.6.7c0,4.1-1.4,7.4-4.1,9.9s-6.4,3.7-11.2,3.7-10.7-2-13.6-6c-2.3-3.3-3.5-7.7-3.5-13.2s1.1-9.7,3.4-13c2.9-4.2,7.5-6.3,13.6-6.3s8.9,1.3,11.5,4c2.4,2.4,3.7,5.6,3.7,9.7h0Z"/>
            <path class="cls-1" d="M71.8,303.8v-37h11v14.4h8.7v-14.4h11v37h-11v-15.2h-8.7v15.2h-11Z"/>
            <path class="cls-1" d="M105.9,303.8l10.3-37h14.5l9.3,37h-11.2l-1.7-7.5h-10.1l-2,7.5h-9.2ZM118.6,289.8h7.1l-3.2-15.1-3.9,15.1Z"/>
            <path class="cls-1" d="M173.1,266.8v25.3c0,4.2-1.3,7.3-3.9,9.4s-6.3,3.1-11.2,3.1-8.5-1.1-10.9-3.2-3.6-5.2-3.6-9.3v-25.3h11v25.7c0,1.6.3,2.8,1,3.6.8,1,2.1,1.6,3.8,1.6s2.9-.6,3.7-1.8c.6-.9.9-2.2.9-4v-25.2h9.2Z"/>
            <path class="cls-1" d="M179.1,303.8v-37h27.5v7.2h-16.4v7.5h11v7.2h-11v7.7h16.4v7.5h-27.5Z"/>
            <path class="cls-1" d="M213.3,303.8v-37h9.2l12.6,19.9v-19.9h8.9v37h-8.8l-13-20.7v20.7h-9Z"/>
            <path class="cls-1" d="M279.7,285.4v19.1h-4.5l-2.2-3.6c-1.2,1.1-2.6,2-4.4,2.7-1.7.6-3.5,1-5.2,1-5.5,0-9.6-1.7-12.3-5.1-2.5-3.1-3.7-7.5-3.7-13.2s1.1-10.4,3.4-13.8c2.9-4.3,7.4-6.4,13.6-6.4s9.2,1.3,11.9,3.9c2.5,2.4,3.8,5.8,3.8,10.1h-10.7c0-2.4-.3-4.1-.9-5.1-.7-1.3-2-1.9-3.9-1.9s-3.6,1.2-4.4,3.6c-.6,1.9-1,4.8-1,8.8s.3,7.5.9,9c.8,2.2,2.4,3.3,4.8,3.3s3-.7,4-2.1c.9-1.2,1.3-2.5,1.3-3.9h-5.5v-6.2h15.1Z"/>
            <path class="cls-1" d="M283.7,303.8v-37h11v30.5h15v6.5h-26Z"/>
            <path class="cls-1" d="M316.1,303.8v-37h11v37h-11Z"/>
            <path class="cls-1" d="M329.7,295.2l9.2-3.1c.9,1.8,1.8,3,2.8,3.8,1.2,1,2.8,1.5,4.7,1.5s2.4-.3,3.2-.9,1.3-1.3,1.3-2.2c0-2-1.7-3.6-5-4.8-5.6-2-8.7-3.2-9.3-3.6-3.4-2.1-5-5.2-5-9.3s1.4-5.2,4.3-7.3,6.1-3.2,9.8-3.2,6.7.8,9.3,2.3,4.5,3.5,5.5,5.8l-8.8,3.1c-.6-1.2-1.4-2.2-2.2-2.9-1-.8-2.3-1.2-3.8-1.2s-1.9.3-2.7.8-1.1,1.3-1.1,2.3,1.7,2.6,5.1,3.8c5.1,1.8,8.2,3.1,9.5,3.8,3.4,2,5.1,4.7,5.1,8s-1.5,6.7-4.6,9.1-6.9,3.5-11.3,3.5-7-.8-9.8-2.4c-2.8-1.6-4.9-3.9-6.1-6.9h0Z"/>
            <path class="cls-1" d="M365.7,303.8v-37h11v14.4h8.7v-14.4h11v37h-11v-15.2h-8.7v15.2h-11Z"/>
          </g>
          <g>
            <path class="cls-2" d="M433.4,7.6c14.6,0,26.4,12.3,26.4,27.4s-11.8,27.4-26.4,27.4-26.4-12.3-26.4-27.4,11.8-27.4,26.4-27.4M433.4,0c18.6,0,33.7,15.7,33.7,35s-15.1,35-33.7,35-33.7-15.7-33.7-35S414.7,0,433.3,0h0Z"/>
            <path class="cls-1" d="M421.6,51.7V18.4h13.6c3.4,0,5.9.3,7.5.9,1.5.6,2.8,1.7,3.7,3.2s1.4,3.3,1.4,5.2-.7,4.6-2.1,6.2c-1.4,1.6-3.5,2.6-6.3,3.1,1.4.9,2.5,1.8,3.5,2.8s2.1,2.8,3.7,5.4l3.9,6.5h-7.7l-4.7-7.2c-1.7-2.6-2.8-4.2-3.4-4.9-.6-.7-1.3-1.1-1.9-1.4s-1.8-.4-3.2-.4h-1.3v13.9h-6.5ZM428,32.5h4.8c3.1,0,5-.1,5.8-.4s1.4-.7,1.8-1.4c.4-.7.7-1.5.7-2.5s-.3-2-.9-2.7c-.6-.7-1.4-1.1-2.4-1.3-.5,0-2.1-.1-4.7-.1h-5v8.4h0Z"/>
          </g>
        </g>
      </g>
    </g>
  </g>
</svg>