<?xml version="1.0" encoding="UTF-8"?>
<svg xmlns="http://www.w3.org/2000/svg" version="1.1" viewBox="0 0 689.61 387.9">
  <defs>
    <style>
      .cls-1 {
        fill: #fff5e1;
      }

      .cls-2, .cls-3 {
        fill: #b2d8d1;
      }

      .cls-2, .cls-4 {
        mix-blend-mode: multiply;
      }

      .cls-5, .cls-6, .cls-7 {
        fill: #fff;
      }

      .cls-8 {
        fill: #cc5a0d;
      }

      .cls-9 {
        fill: #a2f4e4;
        opacity: .2;
      }

      .cls-10 {
        fill: #d8860e;
      }

      .cls-11 {
        fill: #ffeec2;
      }

      .cls-12 {
        fill: #ff9234;
      }

      .cls-13 {
        fill: #821018;
      }

      .cls-14 {
        fill: #35d0ba;
      }

      .cls-15 {
        isolation: isolate;
      }

      .cls-16 {
        fill: #ffe39c;
      }

      .cls-17 {
        fill: #18937e;
      }

      .cls-6 {
        opacity: .4;
      }

      .cls-18 {
        fill: #f9e2ac;
      }

      .cls-19 {
        fill: #d92027;
      }

      .cls-20 {
        fill: #ff6c7e;
      }

      .cls-4 {
        fill: #eaeaea;
      }

      .cls-7 {
        opacity: .6;
      }

      .cls-21 {
        fill: #ffecc5;
      }

      .cls-22 {
        fill: #ffcd3c;
      }
    </style>
  </defs>
  <!-- Generator: Adobe Illustrator 28.7.1, SVG Export Plug-In . SVG Version: 1.2.0 Build 142)  -->
  <g class="cls-15">
    <g id="BACKGROUND">
      <rect class="cls-5" x="-30.2" y="-56.05" width="750" height="500"/>
    </g>
    <g id="OBJECTS">
      <g>
        <rect class="cls-1" width="689.61" height="387.9"/>
        <path class="cls-11" d="M626.39,0c-1.81,9.74-7.28,19.41-14.38,25.89-11.76,10.74-29.59,13.34-41.63,23.89-11.01,9.65-17.91,23.68-22.13,37.1-7.2,22.99-11.31,39.17-32.9,54.85-29.46,21.38-65.3,30.26-88.81,58.93-16.26,19.84-22.35,43.65-27.2,67.74-2.96,14.77-7.64,27.6-18.59,39.39-11.98,12.9-26.38,23.25-33.7,39.42-5.99,13.21-9.08,26.64-10,40.69H0V0h626.39Z"/>
        <path class="cls-18" d="M574.92,31.08c-24.52,7.9-50.18,12.45-63.96,37.08-11.37,20.31-18.43,42.63-37.78,57.63-18.67,14.46-41.13,17.91-58.3,34.87-22.91,22.62-27.38,56.73-27.38,87.45,0,13.69-2.37,27.91-9.83,39.73-7.29,11.58-19.06,19.45-28.85,28.33-21.54,19.53-39.72,43.82-49.43,71.73H0V0h598.56c.98,15.06-8.01,26.04-23.64,31.08Z"/>
      </g>
      <path class="cls-21" d="M183.85,147.39c-10.27,0-10.29,15.96,0,15.96s10.29-15.96,0-15.96Z"/>
      <g>
        <ellipse class="cls-11" cx="529.55" cy="350.46" rx="148.24" ry="25.56"/>
        <g>
          <g>
            <g>
              <g>
                <g>
                  <polygon class="cls-19" points="628.46 246.79 661.8 220.31 611.4 232.7 628.46 246.79"/>
                  <polygon class="cls-13" points="661.8 220.31 628.46 246.79 626.8 264.07 637.01 252.9 661.8 220.31"/>
                  <polygon class="cls-19" points="661.8 220.31 637.01 252.9 653.45 267.17 661.8 220.31"/>
                </g>
                <g>
                  <path class="cls-5" d="M613.15,241.92c-2.85,2.14-5.76,4.13-8.73,6.05-2.97,1.91-5.99,3.73-9.08,5.45-3.1,1.69-6.25,3.27-9.47,4.7-3.24,1.38-6.55,2.6-9.94,3.52,3.34-1.1,6.57-2.48,9.71-4.02,3.13-1.58,6.17-3.31,9.15-5.15,2.96-1.86,5.87-3.82,8.7-5.86,2.83-2.05,5.63-4.18,8.28-6.39l1.37,1.7Z"/>
                  <path class="cls-5" d="M619.92,247.95c-1.95,1.46-3.93,2.81-5.95,4.12-2.02,1.3-4.09,2.54-6.19,3.71-2.11,1.15-4.26,2.23-6.46,3.2-2.21.94-4.47,1.77-6.78,2.4,2.28-.75,4.48-1.69,6.62-2.74,2.13-1.08,4.21-2.26,6.24-3.51,2.02-1.27,4-2.6,5.93-3.99,1.93-1.39,3.83-2.85,5.64-4.36l.94,1.16Z"/>
                  <path class="cls-5" d="M638.99,262.37c-3.04,2.29-6.14,4.4-9.31,6.45-3.17,2.04-6.39,3.98-9.68,5.81-3.3,1.81-6.67,3.49-10.1,5.01-3.46,1.48-6.99,2.77-10.61,3.76,3.56-1.17,7.01-2.65,10.36-4.29,3.33-1.69,6.58-3.53,9.76-5.49,3.16-1.98,6.26-4.07,9.28-6.25,3.02-2.18,6-4.46,8.83-6.82l1.47,1.81Z"/>
                  <path class="cls-5" d="M623.54,257.56c-3.04,2.29-6.14,4.4-9.31,6.45-3.17,2.04-6.39,3.98-9.68,5.81-3.3,1.81-6.67,3.49-10.1,5.01-3.46,1.48-6.99,2.77-10.61,3.76,3.56-1.17,7.01-2.65,10.36-4.29,3.33-1.69,6.58-3.53,9.76-5.49,3.16-1.98,6.26-4.07,9.28-6.25,3.02-2.18,6-4.46,8.83-6.82l1.47,1.81Z"/>
                  <path class="cls-5" d="M647.61,266.01c-2.81,2.57-5.69,4.97-8.64,7.32-2.95,2.34-5.98,4.58-9.07,6.72-3.11,2.12-6.3,4.12-9.57,5.97-3.3,1.8-6.69,3.44-10.19,4.77,3.43-1.51,6.72-3.31,9.9-5.27,3.16-2,6.21-4.15,9.19-6.41,2.96-2.28,5.84-4.65,8.64-7.12,2.79-2.46,5.54-5.01,8.13-7.64l1.63,1.66Z"/>
                </g>
              </g>
              <g>
                <g>
                  <polygon class="cls-12" points="578.11 46.61 537.85 22.27 545.28 8.71 578.11 46.61"/>
                  <polygon class="cls-8" points="537.85 22.27 539.57 48.24 578.11 46.61 537.85 22.27"/>
                  <polygon class="cls-12" points="520.43 49.01 578.11 46.61 530.09 34.69 520.43 49.01"/>
                </g>
                <g>
                  <path class="cls-5" d="M514.2,42.69l-1.4,2.11c-3.78.13-7.59.5-11.35,1.05-5.39.76-10.73,1.96-15.95,3.51-2.64.71-5.19,1.7-7.77,2.59-2.5,1.08-5.09,2-7.52,3.27-4.98,2.27-9.61,5.23-14.15,8.31,4.42-3.23,8.97-6.35,13.91-8.79,2.39-1.35,4.96-2.37,7.45-3.54,2.57-.98,5.11-2.06,7.75-2.87,5.22-1.75,10.57-3.14,16.02-4.09,4.3-.75,8.62-1.31,13.01-1.54Z"/>
                  <path class="cls-5" d="M521.52,31.57l-1.28,1.94c-3.45-.6-7.04-.93-10.59-1.04-4.09-.15-8.18.02-12.26.48-2.04.19-4.05.58-6.08.9-1.99.46-4.03.81-5.99,1.42-3.99,1.03-7.8,2.6-11.57,4.28,3.68-1.85,7.45-3.61,11.42-4.81,1.94-.71,3.98-1.14,5.98-1.7,2.03-.4,4.05-.9,6.11-1.17,4.1-.64,8.26-1.01,12.42-1.04,3.94-.04,7.87.14,11.84.73Z"/>
                  <path class="cls-5" d="M526.02,24.73l-1.23,1.88c-2.83-.79-5.81-1.35-8.77-1.75-3.39-.45-6.82-.64-10.25-.59-1.72-.01-3.43.15-5.15.25-1.7.23-3.43.34-5.11.7-3.41.52-6.72,1.53-10,2.62,3.21-1.26,6.49-2.45,9.89-3.16,1.68-.45,3.41-.66,5.12-.98,1.73-.19,3.45-.45,5.2-.52,3.47-.23,6.98-.23,10.47.05,3.3.27,6.54.71,9.83,1.5Z"/>
                  <path class="cls-5" d="M531.97,15.7l-1.15,1.74c-1.8-.84-3.71-1.6-5.62-2.23-2.57-.86-5.2-1.53-7.88-2.01-1.33-.27-2.69-.4-4.03-.59-1.35-.08-2.72-.25-4.07-.23-2.73-.11-5.46.17-8.18.54,2.69-.54,5.41-1.01,8.17-1.08,1.38-.11,2.75-.03,4.14-.04,1.38.1,2.76.14,4.14.33,2.75.31,5.48.81,8.17,1.52,2.14.57,4.23,1.22,6.3,2.06Z"/>
                </g>
              </g>
            </g>
            <g>
              <g>
                <path class="cls-13" d="M650.77,328.54h0s-.04-.1-.04-.1c-.35-1.07-.77-2.14-1.27-3.23l-17.87-45.36c-.74-2.01-2.48-3.48-4.58-3.89l15.79,44.35h-228.22s4.2,18.25-.67,36.36h228.9v3.41l2.47-3.41s10.35-12.99,5.5-28.14Z"/>
                <g>
                  <polygon class="cls-19" points="641.49 356.68 627.01 319.15 437.16 319.85 411.91 356.68 409.57 356.68 409.57 360.09 642.8 360.09 642.8 356.68 641.49 356.68"/>
                  <polygon class="cls-13" points="642.8 356.68 409.57 356.68 437.16 316.44 627.01 315.74 642.8 356.68"/>
                </g>
                <g>
                  <polygon class="cls-13" points="641.49 316.92 627.01 279.38 437.16 280.09 411.91 316.92 409.57 316.92 409.57 320.32 642.8 320.32 642.8 316.92 641.49 316.92"/>
                  <polygon class="cls-19" points="642.8 316.92 409.57 316.92 437.16 276.68 627.01 275.97 642.8 316.92"/>
                </g>
                <g>
                  <path class="cls-5" d="M414.57,320.32s4.13,18.25-.66,36.36h227.58s14.13-18.02,1.31-36.36h-228.23Z"/>
                  <g>
                    <polygon class="cls-4" points="440.72 333.48 499.81 333.48 475.54 356.68 440.72 333.48"/>
                    <polygon class="cls-16" points="440.72 333.48 499.81 333.48 470.27 350.18 440.72 333.48"/>
                  </g>
                  <g>
                    <polygon class="cls-4" points="524.47 328.02 624.83 328.02 623.13 353.91 524.47 328.02"/>
                    <polygon class="cls-22" points="524.47 328.02 624.83 328.02 623.13 345.68 524.47 328.02"/>
                  </g>
                </g>
              </g>
              <g>
                <g>
                  <path class="cls-22" d="M646.9,140.35c-.11-.98-.23-1.94-.37-2.91v-.02c-4.13-29.99-19.37-56.8-43.12-75.74-2.38-1.91-5.86-1.51-7.77.87-1.83,2.3-1.53,5.62.64,7.55l-133.95,165.72c-2.17-.79-4.7-.17-6.22,1.74-1.9,2.38-1.51,5.86.88,7.77,18.39,14.66,39.87,22.88,61.71,24.98l-2.44,17.08c-42.07.81-75.29,7.13-78.1,11.58-.13.2-.19.41-.19.6,0,4.75,39.06,4.94,87.25,4.94s87.25-.19,87.25-4.94c0-1.85-5.91-4.12-15.96-6.19-14.17-2.94-36.59-5.5-62.33-5.99v-.08s-2.36-16.44-2.36-16.44c33.95-.51,67.43-15.59,90.21-44.16,19.55-24.52,28.39-55.2,24.87-86.37ZM613.39,219.83c-36.17,45.37-102.16,53.26-147.98,18.06l133.71-165.43c20.7,17.58,33.74,42,36.8,69.12,3.19,28.24-4.81,56.03-22.53,78.25Z"/>
                  <path class="cls-10" d="M622.02,226.72c-22.78,28.57-56.26,43.65-90.21,44.16l2.35,16.44h-12.6s7.67-.14,6.3-19.99c23.41,0,46.39-7.16,65.78-20.34,11.39-7.74,21.19-16.02,28.69-27.79,8.78-13.79,14.85-27.53,19.96-43.01,2.35-7.1,2.7-15.62,3.41-23.08.5-5.24.83-10.38.85-15.68.14.97.26,1.93.37,2.91,3.52,31.17-5.32,61.84-24.87,86.37Z"/>
                  <path class="cls-10" d="M612.47,299.58c0,4.75-39.06,4.94-87.25,4.94s-87.25-.19-87.25-4.94c0-.19.06-.4.19-.6,2.26,1.01,5.31,1.06,7.51,1.23,5.35.43,10.74.68,16.15.68,11.83,0,23.66.64,35.56.64,28.25,0,56.86,1.5,84.79-2.31,4.03-.55,8.52-.52,12.44-1.48,2.86-.7,2.98-2.61,1.91-4.35,10.05,2.07,15.96,4.34,15.96,6.19Z"/>
                  <path class="cls-7" d="M454.66,296.46c0-.23.14-.49.49-.75.9-.69,2.26-.85,3.33-1.11,1.41-.34,2.85-.59,4.27-.87,6.98-1.36,14.08-2.13,21.14-2.98,2.62-.31,5.26-.57,7.88-.93,1.01-.14,3.4-.62,3.63.89.29,1.88-4.3,3.12-5.54,3.48-3.78,1.08-7.56,1.22-11.44,1.56-3.58.32-7.16.58-10.73,1.03-3.49.44-6.99.95-10.51,1.01-.82.01-2.51-.52-2.52-1.32Z"/>
                </g>
                <g>
                  <g>
                    <g>
                      <g>
                        <path class="cls-14" d="M625.84,153.77c0,.55,0,1.1-.02,1.66-.16,9.74-1.76,19.12-4.6,27.95-2.16,6.75-5.05,13.16-8.58,19.18-8.85,15.12-21.68,27.61-37.06,36.05-13.78,7.56-29.6,11.85-46.42,11.85-3.96,0-7.86-.24-11.69-.7-23.08-2.78-43.65-13.7-58.78-29.8-4.12-4.38-7.83-9.14-11.08-14.23-4.36-6.85-7.91-14.3-10.45-22.18-.41-1.25-.78-2.52-1.13-3.79-2.15-7.71-3.37-15.81-3.52-24.16,0-.41-.02-.82-.02-1.22,0-.2,0-.4,0-.6,0-.94,0-1.88.05-2.82.02-.99.06-1.96.12-2.93,1.08-18.27,7.22-35.19,17.07-49.35,17.45-25.13,46.53-41.58,79.45-41.58,5.15,0,10.21.41,15.13,1.18,6.8,1.07,13.37,2.84,19.62,5.26,5.08,1.96,9.96,4.34,14.59,7.09,25.34,15.07,43.21,41.4,46.7,72.09.42,3.63.64,7.33.64,11.07Z"/>
                        <g>
                          <path class="cls-17" d="M534.75,228.72c-1.13,2.9-5.57,3.59-8,4.69-5.47,2.5-2.27,6.01-4.9,9.91-1.16,1.72-3.52,2.12-4.24,4.18-.24.69-.26,1.45-.14,2.25-23.08-2.78-43.65-13.7-58.78-29.8,1.61-.68,3.39-1.22,4.06-2.97,1.06-2.76.39-7.79.24-10.74-.16-3.42-.64-7.43,3.26-8.96,5.84-2.29,10.36.05,15.24-4.86,3.79-3.79,6.47-4.75,11.85-4.73,5.73,0,9.32-.55,13.47,3.54,3.98,3.93,4.48,10.32,7.36,15.12,1.96,3.27,4.09,6.09,7.38,8.08,3.16,1.91,6.54,2.74,9.44,5.2,2.1,1.78,4.94,6.08,3.76,9.1Z"/>
                          <path class="cls-17" d="M497.62,149.12c-2.87,3.52-10.11,5.1-14.12,6.43-4.58,1.53-9.52,2.99-12.98,6.59-6.05,6.29.59,17.98-5.85,23.01-4.4,3.43-9.95,4.47-11.8,10.45-.72,2.34-.67,4.86-1.84,7.03-.84,1.57-2.03,2.5-3.42,3.08-9.47-14.85-15.01-32.45-15.12-51.35,2.13-1.52,3.68-4.06,5.38-5.99,4.22-4.8,9.2-11.38,16.02-11.89,7.63-.57,12.26,5.15,19.08,7.2,6.85,2.05,12.42-2.27,18.95-1.88,3.36.2,8.45,3.98,5.71,7.32Z"/>
                          <path class="cls-17" d="M497.64,169.67c-.94-8.76,11.09-7.67,16.58-8.66,7.36-1.32,11.18-13.4,13.99-19.53,2.84-6.21,10.04-5.62,16.12-5.58,6.52.04,13.84-.13,20.22,1.19,3.21.67,6.6,2.16,6.84,5.84.22,3.34-2.59,6.3-2.54,9.85.05,3.66,2.85,6.86,5.61,9.03,3.65,2.86,10.27,4.36,12.85,8.15,3.97,5.84-3.33,8.64-7.44,11.18-5.76,3.57-5.58,12.23-6.98,18.5-1.14,5.1-2.14,13.27-7.01,16.32-4.49,2.82-7.29,1.08-10.19-2.39-5.9-7.06-13.9-4.89-21.54-9.04-8.85-4.81-9.98-11.77-12.89-20.39-1.23-3.64-2.47-8.1-6.13-9.91-3.47-1.72-15.19.92-17.48-4.57Z"/>
                          <path class="cls-17" d="M530.57,80.36c-.63,6.36,2.85,15.4-2.51,20.71-2,1.97-5.72,1.69-8.29,1.61-7.25-.24-12.6-4.91-19.51-6.45-4.73-1.06-11.58-1.1-16.08.5-5.41,1.91-9.35,6.4-14.52,8.47-3.75,1.49-8.01-.44-11.55-1.71-3.46-1.23-6.02-2.77-8.4-4.81,17.45-25.13,46.53-41.58,79.45-41.58,5.15,0,10.21.41,15.13,1.18-1.38,2.87-3.03,5.63-4.8,8.29-3.12,4.67-8.37,8.02-8.93,13.81Z"/>
                          <path class="cls-17" d="M481.88,124.36c-1.75-2.37-4.64-5.74-2.42-8.6,1.65-2.13,4.64-2.07,7.13-2.1,3.57-.04,5.51.18,8.23-1.89,2.28-1.74,3.79-3.53,6.81-3.01,8.27,1.42,11.61,12.67,10.92,19.73-.33,3.38-1.59,5.44-5.49,4.59-3-.65-3.1-3.62-5.71-5.09-3.97-2.23-8.67,1.96-12.73,2-2.44.02-4.37-1.57-6.75-5.63Z"/>
                          <path class="cls-17" d="M625.84,153.77c0,10.33-1.62,20.28-4.62,29.61-.96-2.58-2.14-5.06-3.97-7.68-3.13-4.49-6.99-8.23-10.91-11.93-5.13-4.83-3.78-8.09-3.43-14.57.21-4.02-2.84-6.02-2.81-9.43.06-4.81,3.12-8.2-.65-12.61-4.53-5.29-14.24-5.91-20.66-5.89-5.62,0-11.23-.03-16.84,0-3.33.02-8.17.4-10.45-2.69-3.86-5.23,4.93-8.44,8.22-10.48,6.76-4.18,10.39-9.88,9.47-17.82-.73-6.21-5.93-11.2-7.06-17.35-.64-3.41.41-6.44,1.78-9.39,36.22,13.96,61.93,49.1,61.93,90.24Z"/>
                          <path class="cls-17" d="M612.64,202.55c-8.85,15.12-21.68,27.61-37.06,36.05-.65-4.4-1.93-9.05.47-13.06,3.19-5.33,9.52-6.2,13.37-10.54,1.98-2.25,1.38-5.39,1.38-8.18,0-4.21-.25-8.36-.28-12.55-.02-2.38-.2-5.53,2-7.09,1.25-.89,6.29-1.47,7.95-1.19,3.86.66,6.3,4.95,7.43,8.43.99,3.07,2.51,5.86,4.74,8.13Z"/>
                        </g>
                      </g>
                      <path class="cls-9" d="M626.3,153.77c0-24.12-14.81-45.62-37.78-59.36-13.74-22.97-35.24-37.78-59.36-37.78s-45.62,14.81-59.36,37.78c-22.97,13.74-37.78,35.24-37.78,59.36v.46h0c.19,23.94,14.95,45.25,37.77,58.9,13.74,22.96,35.24,37.78,59.36,37.78s45.62-14.81,59.36-37.78c22.97-13.74,37.78-35.24,37.78-59.36ZM604.2,153.31c-.02-4.85-.31-9.62-.86-14.29,13.38,3.9,21.58,8.87,22.02,14.29h-21.16ZM603.28,153.31h-25.25c-.02-6.73-.38-13.3-1.05-19.65,9.64,1.34,18.23,3.06,25.41,5.09.58,4.75.88,9.61.9,14.56ZM577.11,153.31h-23.85c0-7.6-.22-14.97-.62-22.02,8.28.5,16.13,1.26,23.4,2.24.68,6.38,1.05,13,1.07,19.78ZM528.7,153.31h-22.72c0-7.6.23-14.99.64-22.08,7.09-.41,14.48-.63,22.08-.64v22.72ZM528.7,154.23v22.72c-7.6,0-14.99-.23-22.08-.64-.41-7.09-.63-14.48-.64-22.08h22.72ZM529.62,154.23h22.72c0,7.6-.23,14.99-.64,22.08-7.09.41-14.48.63-22.08.64v-22.72ZM529.62,153.31v-22.72c7.6,0,14.99.23,22.08.64.41,7.09.63,14.48.64,22.08h-22.72ZM552.58,130.34c-.49-8.27-1.23-16.1-2.2-23.35,7.61.86,14.88,2.16,21.69,3.86,1.7,6.81,3.01,14.08,3.86,21.69-7.25-.97-15.08-1.71-23.35-2.2ZM551.64,130.29c-7.05-.4-14.42-.61-22.02-.62v-23.85c6.78.02,13.39.38,19.78,1.07.98,7.27,1.74,15.12,2.24,23.4ZM529.62,104.9v-25.25c4.95.02,9.81.32,14.56.9,2.03,7.17,3.75,15.76,5.09,25.41-6.35-.67-12.92-1.04-19.65-1.05ZM529.62,78.73v-21.15c5.42.44,10.39,8.63,14.29,22.01-4.66-.55-9.43-.84-14.29-.86ZM528.7,78.73c-4.85.02-9.62.31-14.29.86,3.9-13.38,8.87-21.57,14.29-22.01v21.15ZM528.7,79.65v25.25c-6.73.02-13.3.38-19.65,1.05,1.34-9.64,3.06-18.23,5.09-25.41,4.75-.58,9.61-.88,14.56-.9ZM528.7,105.82v23.85c-7.6,0-14.97.22-22.02.62.5-8.28,1.26-16.13,2.24-23.4,6.38-.68,13-1.05,19.78-1.07ZM505.74,130.34c-8.27.49-16.1,1.24-23.35,2.2.86-7.61,2.16-14.88,3.86-21.69,6.81-1.7,14.08-3.01,21.69-3.86-.97,7.25-1.71,15.08-2.2,23.35ZM505.68,131.28c-.4,7.05-.61,14.42-.62,22.02h-23.85c.02-6.78.38-13.39,1.07-19.78,7.27-.98,15.13-1.74,23.4-2.24ZM480.29,153.31h-25.25c.02-4.95.32-9.81.9-14.56,7.17-2.03,15.77-3.75,25.4-5.09-.67,6.35-1.04,12.92-1.05,19.65ZM454.12,153.31h-21.16c.44-5.42,8.64-10.39,22.02-14.29-.55,4.66-.84,9.43-.86,14.29ZM454.12,154.23c.02,4.85.31,9.62.86,14.29-13.38-3.9-21.58-8.87-22.02-14.29h21.16ZM455.04,154.23h25.25c.02,6.73.38,13.3,1.05,19.65-9.64-1.34-18.23-3.06-25.4-5.09-.58-4.75-.88-9.61-.9-14.56ZM481.21,154.23h23.85c0,7.6.22,14.97.62,22.02-8.28-.5-16.13-1.26-23.4-2.24-.68-6.38-1.05-13-1.07-19.78ZM505.74,177.19c.49,8.27,1.24,16.1,2.2,23.35-7.61-.86-14.88-2.16-21.69-3.86-1.7-6.81-3.01-14.08-3.86-21.69,7.25.97,15.08,1.71,23.35,2.2ZM506.68,177.24c7.05.4,14.42.61,22.02.62v23.85c-6.78-.02-13.39-.38-19.78-1.07-.98-7.27-1.74-15.12-2.24-23.4ZM528.7,202.63v25.25c-4.95-.02-9.81-.32-14.56-.9-2.03-7.17-3.75-15.76-5.09-25.41,6.35.67,12.92,1.04,19.65,1.05ZM528.7,228.81v21.15c-5.42-.44-10.39-8.63-14.29-22.01,4.66.55,9.43.84,14.29.86ZM529.62,228.81c4.85-.02,9.63-.31,14.29-.86-3.9,13.38-8.87,21.57-14.29,22.01v-21.15ZM529.62,227.89v-25.25c6.73-.02,13.3-.38,19.65-1.05-1.34,9.64-3.06,18.23-5.09,25.41-4.75.58-9.61.88-14.56.9ZM529.62,201.71v-23.85c7.6,0,14.97-.22,22.02-.62-.5,8.28-1.26,16.13-2.24,23.4-6.38.68-13,1.05-19.78,1.07ZM552.58,177.19c8.27-.49,16.1-1.24,23.35-2.2-.86,7.61-2.16,14.88-3.86,21.69-6.81,1.7-14.08,3.01-21.69,3.86.97-7.25,1.71-15.08,2.2-23.35ZM552.64,176.25c.4-7.05.61-14.42.62-22.02h23.85c-.02,6.78-.38,13.39-1.07,19.78-7.27.98-15.12,1.74-23.4,2.24ZM578.03,154.23h25.25c-.02,4.95-.32,9.81-.9,14.56-7.17,2.03-15.77,3.75-25.41,5.09.67-6.35,1.04-12.92,1.05-19.65ZM604.2,154.23h21.16c-.44,5.42-8.64,10.39-22.02,14.29.55-4.66.84-9.43.86-14.29ZM603.21,138.01c-.73-5.76-1.85-11.34-3.32-16.71,14.14,7.64,23.36,17.57,25.16,28.53-2.87-4.5-10.59-8.55-21.84-11.81ZM602.25,137.73c-7.19-2.02-15.76-3.74-25.38-5.06-.84-7.56-2.13-14.78-3.81-21.57,9.63,2.47,18.31,5.72,25.72,9.59,1.55,5.46,2.71,11.16,3.48,17.03ZM572.81,110.12c-2.43-9.55-5.62-18.2-9.43-25.63,8.86,2.61,17.09,6.19,24.47,10.58,4.39,7.38,7.98,15.62,10.58,24.47-7.43-3.8-16.08-7-25.63-9.43ZM571.82,109.87c-6.79-1.68-14.01-2.96-21.57-3.81-1.32-9.62-3.03-18.19-5.06-25.38,5.87.76,11.57,1.93,17.03,3.48,3.87,7.4,7.12,16.09,9.59,25.72ZM544.92,79.71c-3.27-11.25-7.31-18.97-11.81-21.84,10.96,1.8,20.89,11.03,28.53,25.16-5.37-1.48-10.96-2.6-16.71-3.32ZM513.4,79.71c-5.76.73-11.34,1.85-16.71,3.32,7.64-14.14,17.57-23.36,28.53-25.16-4.5,2.87-8.55,10.59-11.81,21.84ZM513.12,80.68c-2.02,7.19-3.74,15.76-5.06,25.38-7.56.85-14.78,2.13-21.57,3.81,2.47-9.62,5.72-18.31,9.59-25.72,5.46-1.55,11.16-2.71,17.03-3.48ZM485.51,110.12c-9.55,2.43-18.2,5.62-25.63,9.43,2.61-8.86,6.19-17.09,10.58-24.47,7.38-4.39,15.62-7.98,24.47-10.58-3.8,7.43-7,16.08-9.43,25.63ZM485.26,111.11c-1.68,6.79-2.96,14.01-3.81,21.57-9.62,1.32-18.19,3.03-25.38,5.06.76-5.87,1.93-11.57,3.48-17.03,7.4-3.87,16.09-7.12,25.72-9.59ZM455.11,138.01c-11.25,3.27-18.97,7.31-21.84,11.81,1.8-10.96,11.03-20.89,25.16-28.53-1.48,5.37-2.6,10.96-3.32,16.71ZM455.11,169.53c.73,5.76,1.85,11.34,3.32,16.71-14.13-7.64-23.36-17.56-25.16-28.52,2.87,4.5,10.59,8.54,21.84,11.81ZM456.07,169.81c7.19,2.02,15.76,3.74,25.38,5.05.84,7.56,2.13,14.78,3.81,21.57-9.62-2.47-18.31-5.72-25.72-9.59-1.54-5.46-2.71-11.16-3.48-17.03ZM485.51,197.42c2.43,9.55,5.62,18.2,9.43,25.63-8.86-2.61-17.09-6.19-24.47-10.58-4.39-7.38-7.98-15.62-10.58-24.47,7.43,3.8,16.07,7,25.63,9.43ZM486.5,197.66c6.79,1.68,14.01,2.96,21.57,3.81,1.32,9.62,3.03,18.19,5.06,25.38-5.87-.76-11.57-1.93-17.03-3.48-3.87-7.4-7.12-16.09-9.59-25.72ZM513.4,227.82c3.27,11.25,7.31,18.97,11.81,21.84-10.96-1.8-20.89-11.03-28.53-25.16,5.37,1.48,10.96,2.6,16.71,3.32ZM544.92,227.82c5.76-.73,11.34-1.85,16.71-3.32-7.64,14.14-17.57,23.36-28.53,25.16,4.5-2.87,8.55-10.59,11.81-21.84ZM545.19,226.86c2.02-7.19,3.74-15.76,5.06-25.38,7.56-.85,14.78-2.13,21.57-3.81-2.47,9.63-5.72,18.31-9.59,25.72-5.46,1.55-11.16,2.71-17.03,3.48ZM572.81,197.42c9.55-2.43,18.2-5.62,25.63-9.43-2.61,8.86-6.19,17.09-10.58,24.47-7.38,4.39-15.62,7.98-24.47,10.58,3.8-7.43,7-16.08,9.43-25.63ZM573.06,196.43c1.68-6.79,2.96-14.01,3.81-21.57,9.62-1.32,18.19-3.03,25.38-5.06-.76,5.87-1.93,11.57-3.48,17.03-7.4,3.87-16.09,7.12-25.72,9.59ZM603.21,169.53c11.25-3.27,18.97-7.31,21.84-11.81-1.8,10.96-11.03,20.89-25.16,28.53,1.48-5.37,2.6-10.96,3.32-16.71ZM624.68,144.88c-3.48-9.49-12.42-18.02-25.12-24.75-2.48-8.67-5.89-16.75-10.07-24.06,19.04,11.84,32.13,29.15,35.19,48.81ZM586.85,93.43c-7.31-4.18-15.39-7.59-24.06-10.07-6.72-12.7-15.26-21.64-24.75-25.12,19.65,3.06,36.96,16.14,48.81,35.19ZM520.27,58.24c-9.49,3.48-18.02,12.42-24.75,25.12-8.67,2.48-16.75,5.89-24.06,10.07,11.84-19.04,29.15-32.13,48.81-35.19ZM468.82,96.07c-4.18,7.31-7.59,15.39-10.07,24.06-12.7,6.72-21.64,15.26-25.12,24.75,3.06-19.65,16.14-36.96,35.19-48.81ZM433.64,162.65c3.48,9.49,12.42,18.02,25.12,24.75,2.48,8.67,5.89,16.75,10.07,24.06-19.04-11.84-32.13-29.15-35.19-48.81ZM471.47,214.1c7.31,4.18,15.39,7.59,24.06,10.07,6.72,12.7,15.26,21.64,24.75,25.12-19.65-3.06-36.96-16.14-48.81-35.19ZM538.05,249.29c9.49-3.48,18.02-12.42,24.75-25.12,8.67-2.48,16.75-5.89,24.06-10.07-11.84,19.04-29.15,32.13-48.81,35.19ZM589.5,211.46c4.18-7.31,7.59-15.39,10.07-24.06,12.7-6.72,21.64-15.26,25.12-24.75-3.06,19.65-16.14,36.96-35.19,48.81Z"/>
                    </g>
                    <path class="cls-3" d="M429.95,168.12c.25.91.46,1.9.64,2.95-.29-.98-.51-1.96-.64-2.95Z"/>
                    <path class="cls-2" d="M625.84,153.77c0,10.33-1.62,20.28-4.62,29.61-2.16,6.75-5.05,13.16-8.58,19.18-8.85,15.12-21.68,27.61-37.06,36.05-13.78,7.56-29.6,11.85-46.42,11.85-3.96,0-7.86-.24-11.69-.7-23.08-2.78-43.65-13.7-58.78-29.8-4.12-4.38-7.83-9.14-11.08-14.23-4.36-6.85-7.91-14.3-10.45-22.18,2.14,3.09,4.41,6.04,6.3,8.74,5.8,8.34,12.81,14.85,21.74,19.78,15,8.29,28.88,9.9,45.74,11.56,21.33,2.1,44.17.64,63.46-9.39,12.05-6.26,19.46-13.44,27.38-23.73-7.87,8.58-21.18,12.67-32.37,15.09-10.02,2.17-22.7,4.49-32.65.52,21.35-4.17,42.47-11.16,56.45-28.69,16.57-20.79,15.62-53.68,5.84-77.26-3.69-8.9-8.88-17.23-15.47-24.29-1.52-1.63-3.23-3.44-5.07-5.25,28.34,16.86,47.34,47.79,47.34,83.16Z"/>
                    <path class="cls-6" d="M445.12,130.86c1.07-5.62,4.52-11.37,6.71-16.66,2.27-5.48,5.94-10.51,9.65-15.04,9.34-11.39,21.87-20.8,34.76-27.81,2.25-1.22,32.75-14.95,29.08-2.91-1.37,4.48-8.71,7.3-12.19,9.79-6.83,4.89-13.92,8.44-20,14.34-8.67,8.41-17.29,16.75-24.77,26.25-3.21,4.07-6.55,8.32-10.15,12.06-2.16,2.25-5.27,5.2-8.34,6.01-3.38.89-5.71-3.33-4.75-6.02Z"/>
                    <g>
                      <path class="cls-2" d="M462.87,164.13s-18.05-4.91-30.34-13.18c.02-.99.06-1.96.12-2.93.37,0,.74,0,1.1-.04-1.11-3.81,2.94-5.78,5.98-4.22.61-4.38,8.01-9,12.38-8.17,5.23,1,6.59,8.22,6.18,12.53,1.89.83,3.16.97,3.64,3.36.53,2.63-1.22,5.19-3.04,7.03.99,2.05,2.42,3.96,3.99,5.61Z"/>
                      <path class="cls-2" d="M625.84,153.77c0,.55,0,1.1-.02,1.66-16.44,13.01-38.87,15.65-59.23,15.65,2.25-.45,3.98-.82,6.19-1.43,3.05-.82,5.78-2.14,8.73-3.21-2.47-4.65-1.8-11.94,4.65-11.68-1.19-4.13-1.23-7.72.52-11.72,1.49-3.4,3.2-6.71,6.94-7.83,1.77-.52,3.86-.62,5.7-.73.76-.04,1.65-.07,2.32.29-.02-2.09,3.02-4.24,4.69-4.96,1.93-.83,4.49-.98,6.52-.54,6.55,1.43,10.15,7.76,11.87,13.81.17-.14.33-.26.5-.37.42,3.63.64,7.33.64,11.07Z"/>
                      <path class="cls-2" d="M539.36,101.74c-3.69-.09-7.39-.26-11.08-.28-7.84-.03-15.6.71-23.37,1.54-7.77.84-14.87,3.61-22.33,5.66,2.09-2.22,5.06-3.77,7.79-4.94-.22-4.17,4.4-9.41,8.57-8.14-.19-4.36,4.28-8.22,8.29-9,4.21-.82,7.43.16,9.73,3.98,1.89-.17,4.11-.8,5.95.16,2.06,1.07,2.76,4.11,3.03,6.2,1.92.05,5.55-.34,5.82,2.37,2.44.51,5.63.75,7.6,2.46Z"/>
                      <path class="cls-2" d="M620.69,127.99c-.61-2.23-1.28-4.43-1.99-6.63-.93-.83-1.86-1.65-2.82-2.44-.32-.28-.65-.55-1-.83-.65-.55-1.32-1.09-2.02-1.63-.29-.24-.6-.49-.92-.73-.83-.66-1.68-1.29-2.53-1.92-.34-.26-.68-.5-1.03-.75-.74-.54-1.49-1.07-2.24-1.58-.32-.22-.63-.43-.95-.64-.77-.53-1.55-1.04-2.33-1.53-.33-.23-.66-.43-.99-.62-.95-.61-1.91-1.2-2.87-1.76-.31-.19-.62-.37-.93-.56-.88-.5-1.76-1-2.65-1.48-.31-.17-.62-.33-.93-.49-1-.55-2.02-1.07-3.03-1.58-.32-.17-.66-.33-.99-.48-1.28-.63-2.57-1.25-3.88-1.82-.32-.16-.64-.29-.97-.43-1.34-.6-2.7-1.16-4.06-1.71-.34-.14-.67-.27-1.01-.39-1.42-.57-2.84-1.1-4.28-1.59-.33-.12-.66-.23-.98-.34-1.03-.36-2.08-.7-3.13-1.02-.34-.12-.69-.22-1.02-.31-1.36-.43-2.72-.83-4.1-1.2-.35-.1-.69-.19-1.04-.28-1.36-.36-2.72-.7-4.1-1.02-.36-.09-.72-.18-1.07-.26-1.63-.38-3.28-.71-4.94-1.02-.38-.08-.77-.16-1.16-.22-9.69-1.78-19.74-2.64-30.06-2.62h-.01s-.94,1.23-.94,1.23c3.16,5.83,8.5,20.21,8.5,20.21,0,0,47.4-8.66,87.55,19.67l.94-1.23h0Z"/>
                      <path class="cls-2" d="M556.93,190.89l-7.12,4.74-15.69,10.44h0s-56.56,6.46-98.09-26.32c-2.15-7.71-3.37-15.81-3.52-24.16,11.58,8.97,40.28,26.58,87.06,26.58,4.3,0,8.76-.15,13.38-.47l16.15,6.19,7.83,3Z"/>
                    </g>
                  </g>
                  <g>
                    <path class="cls-5" d="M457.42,156.67s-24.64-6.71-35.94-17.62c0,0,3.58,1.82,6.82,1.48-1.12-3.82,2.93-5.78,5.98-4.22.61-4.38,8.02-9,12.38-8.16,5.23,1,6.59,8.22,6.18,12.53,1.88.84,3.15.97,3.64,3.37.53,2.63-1.22,5.19-3.05,7.03.99,2.06,2.42,3.96,3.99,5.61Z"/>
                    <path class="cls-5" d="M538.12,95.02c-3.69-.09-7.39-.26-11.08-.28-7.84-.03-15.6.71-23.37,1.54-7.77.84-14.87,3.61-22.33,5.66,2.09-2.22,5.06-3.77,7.79-4.94-.22-4.17,4.4-9.41,8.57-8.14-.19-4.36,4.29-8.22,8.29-9,4.21-.82,7.43.16,9.73,3.98,1.89-.17,4.11-.8,5.95.16,2.06,1.07,2.76,4.11,3.03,6.2,1.92.05,5.55-.35,5.82,2.37,2.44.51,5.63.75,7.6,2.46Z"/>
                    <path class="cls-5" d="M636.73,136.64c-2.41,4.39-5.49,8.86-9.58,12.12-16.46,13.09-38.95,15.75-59.37,15.75,2.24-.45,3.97-.82,6.19-1.42,3.04-.82,5.78-2.15,8.73-3.22-2.47-4.65-1.79-11.94,4.64-11.68-1.19-4.13-1.24-7.72.52-11.72,1.49-3.4,3.21-6.71,6.95-7.83,1.77-.53,3.86-.62,5.7-.72.76-.04,1.64-.08,2.32.29-.03-2.09,3.01-4.25,4.69-4.96,1.93-.83,4.49-.98,6.52-.54,6.55,1.42,10.15,7.76,11.87,13.8,2.78-2.31,5.48.31,6.47,2.96,1.23-.46,3.43-1.82,4.36-2.81Z"/>
                  </g>
                  <g>
                    <g>
                      <g>
                        <polygon class="cls-16" points="548.37 207.25 540.86 211.33 524.29 220.31 514.26 210.52 516.51 199.38 525.32 195.94 540.85 203.56 548.37 207.25"/>
                        <path class="cls-13" d="M548.37,207.25l-7.51,4.08c-2.12-3.68-1.12-6.31-.01-7.78l7.52,3.7Z"/>
                      </g>
                      <path class="cls-20" d="M418.08,173.15l-7.81-10.81c-1.62-2.25-1.81-5.29-.34-7.64.04-.06.08-.12.12-.18,2.43-3.77,7.9-4,10.89-.65l3.6,3.98-6.46,15.3Z"/>
                      <g>
                        <path class="cls-22" d="M519.69,211.8c.68,2.76,2.2,5.59,4.6,8.52,0,0-68.57,1.61-105.96-46.81-.81-1.07-2.41-3.34-2.41-3.34,0,0-4.76-4.85.37-10.06.09-.09.19-.19.29-.29.52-.49,1.02-.9,1.5-1.24,4.06-2.87,6.45-.73,6.45-.73,8.41,8.75,40.05,36.8,100.79,38.09-2.8,2.83-4.69,5.74-5.52,8.74-.67,2.32-.71,4.69-.11,7.13Z"/>
                        <path class="cls-10" d="M519.69,211.8c-11.54-.39-69.92-4.67-103.4-51.7.09-.09.19-.19.29-.29.52-.49,1.02-.9,1.5-1.24,6.86,9.1,35.71,41.54,101.72,46.1-.67,2.32-.71,4.69-.11,7.13Z"/>
                      </g>
                    </g>
                    <g>
                      <path class="cls-10" d="M616.86,125.08c-.12-.76-.23-1.52-.35-2.27-20.64-25-49.39-40.07-82.66-46.08l-4.23-1.97-1.11,1.08c2.25,6.24,5.37,21.25,5.37,21.25,0,0,48.16-1.46,83.61,32.58l1.11-1.08-1.74-3.51Z"/>
                      <g>
                        <path class="cls-22" d="M618.6,128.59c-35.44-34.03-83.61-32.58-83.61-32.58,0,0-3.11-15.01-5.37-21.25,10.21,1.53,20.02,3.88,29.34,7.1.38.11.75.25,1.11.39,1.59.55,3.18,1.13,4.73,1.75.34.13.68.27,1.02.41,1.32.52,2.61,1.06,3.9,1.62.33.14.65.29.99.43,1.31.58,2.6,1.18,3.88,1.8.32.14.64.29.97.46.98.48,1.97.98,2.94,1.48.3.17.62.32.92.49,1.35.71,2.68,1.45,4,2.22.31.17.63.35.94.53,1.26.75,2.52,1.51,3.76,2.3.3.18.6.37.89.57,1.21.76,2.39,1.56,3.56,2.38.3.2.61.41.9.63.93.65,1.85,1.33,2.76,2.02.29.2.56.41.85.63.8.61,1.6,1.23,2.39,1.86.28.23.56.46.84.69.87.7,1.73,1.43,2.58,2.17.29.24.59.49.88.76.7.6,1.39,1.22,2.07,1.86.29.25.56.51.85.77.66.62,1.33,1.25,1.98,1.9.3.29.61.59.9.89.75.75,1.5,1.5,2.22,2.27.29.29.55.57.8.86.61.64,1.19,1.27,1.75,1.91.3.32.59.64.87.97.83.93,1.63,1.88,2.42,2.84.38,2.28.71,4.57.98,6.86Z"/>
                        <path class="cls-10" d="M554.56,88.89c-.28,2.64-5.42,3.18-10.11,2.69s-7.21-3.14-6.93-5.78c.28-2.64,3.24-4.29,7.94-3.8,4.7.5,9.38,4.25,9.1,6.89Z"/>
                        <g>
                          <path class="cls-10" d="M561.51,90.23c.02.59-.9.59-.91,0-.06-2.27-.41-4.53-1.06-6.69-.17-.57-.36-1.12-.58-1.68.38.11.75.25,1.11.39.19.54.37,1.1.51,1.66.57,2.05.88,4.18.93,6.32Z"/>
                          <path class="cls-10" d="M566.32,88.11c.04.6-.87.59-.91,0-.06-.82-.14-1.64-.27-2.45-.09-.56-.2-1.11-.33-1.67.34.13.68.27,1.02.41.11.54.21,1.1.28,1.65.1.68.17,1.36.21,2.05Z"/>
                          <path class="cls-10" d="M570.85,88.12c.02.59.02,1.19,0,1.79-.03.59-.94.6-.92,0,.03-.75.02-1.48-.03-2.22-.03-.55-.08-1.1-.17-1.66.33.14.65.29.99.43.06.55.11,1.1.13,1.66Z"/>
                          <path class="cls-10" d="M575.81,94.56c0,.59-.92.59-.92,0,.02-1.54-.03-3.07-.14-4.59-.05-.56-.09-1.13-.16-1.69.32.14.64.29.97.46.06.57.1,1.14.13,1.71.09,1.37.13,2.74.12,4.12Z"/>
                          <path class="cls-10" d="M579.42,90.7c0,.55-.02,1.1-.05,1.66,0,.06,0,.13,0,.19-.04.59-.96.59-.92,0,.02-.22.03-.45.03-.67.04-.55.04-1.11.03-1.67.3.17.62.32.92.49Z"/>
                          <path class="cls-10" d="M584.36,94.77c0,.17-.06.28-.17.35-.27.19-.75.07-.75-.35v-.1c0-.58,0-1.17-.04-1.75.31.17.63.35.94.53,0,.44,0,.88,0,1.32Z"/>
                          <path class="cls-10" d="M589,96.32c-.03.58-.06,1.16-.1,1.74-.02.38-.05.76-.08,1.14-.05.58-.97.59-.91,0,.05-.57.09-1.14.12-1.71.04-.58.06-1.16.08-1.74.3.18.6.37.89.57Z"/>
                          <path class="cls-10" d="M593.46,99.33c0,.34-.02.69-.03,1.03,0,.32-.29.47-.54.43h0c-.14-.02-.27-.1-.32-.24-.03-.06-.04-.12-.04-.19.02-.55.03-1.1.04-1.66.3.2.61.41.9.63Z"/>
                          <path class="cls-10" d="M597.07,101.98c-.06.55-.13,1.11-.21,1.67,0,.04,0,.06-.03.09-.16.46-.93.2-.86-.33.02-.1.03-.19.04-.29.08-.59.16-1.17.21-1.76.29.2.56.41.85.63Z"/>
                          <path class="cls-10" d="M600.3,104.53c-.06.62-.13,1.23-.19,1.84-.02.17-.05.36-.06.53-.06.58-.98.58-.91,0,.05-.41.09-.81.14-1.22.06-.61.13-1.22.19-1.84.28.23.56.46.84.69Z"/>
                          <path class="cls-10" d="M603.77,107.46c-.05.59-.09,1.17-.14,1.76,0,.06-.02.1-.04.15-.17.43-.93.39-.88-.15.02-.19.04-.4.05-.59.06-.64.1-1.29.13-1.93.29.24.59.49.88.76Z"/>
                          <path class="cls-10" d="M606.68,110.1c-.06.63-.13,1.26-.21,1.89,0,0,0,.03,0,.04-.1.53-.98.53-.9-.04.03-.24.06-.49.08-.73.08-.64.15-1.29.19-1.93.29.25.56.51.85.77Z"/>
                          <path class="cls-10" d="M609.57,112.89c0,.73-.02,1.45-.04,2.17v.08c0,.59-.93.59-.92,0,0-.34,0-.67.02-1.01,0-.71.03-1.43.04-2.14.3.29.61.59.9.89Z"/>
                          <path class="cls-10" d="M612.59,116.02c-.06.52-.14,1.04-.22,1.56-.02.15-.09.24-.18.29-.28.17-.77-.08-.7-.52,0-.06.02-.14.03-.2.1-.65.19-1.32.28-1.97.29.29.55.57.8.86Z"/>
                          <path class="cls-10" d="M615.2,118.9c-.02.4-.04.8-.06,1.2-.02.32-.31.47-.56.43h0c-.18-.03-.35-.17-.35-.4h0v-.04c.05-.72.09-1.45.12-2.16.3.32.59.64.87.97Z"/>
                        </g>
                      </g>
                    </g>
                  </g>
                </g>
              </g>
            </g>
          </g>
          <g>
            <g>
              <path class="cls-22" d="M421.48,29.95s-1.21,11.87-12.55,13.21c0,0,10.83,0,12.55,12.27,0,0,.24-11.81,9.12-12.74,0,0-7.85.21-9.12-12.74Z"/>
              <path class="cls-22" d="M435.18,57.44s-.58,5.67-6,6.32c0,0,5.18,0,6,5.87,0,0,.11-5.64,4.36-6.09,0,0-3.75.1-4.36-6.09Z"/>
            </g>
            <g>
              <path class="cls-22" d="M421.48,214.73s-1.21,11.87-12.55,13.21c0,0,10.83,0,12.55,12.27,0,0,.24-11.81,9.12-12.74,0,0-7.85.21-9.12-12.74Z"/>
              <path class="cls-22" d="M428.13,244.82s-.58,5.67-6,6.32c0,0,5.18,0,6,5.87,0,0,.11-5.64,4.36-6.09,0,0-3.75.1-4.36-6.09Z"/>
              <path class="cls-22" d="M437.93,231.7s-.34,3.38-3.57,3.76c0,0,3.09,0,3.57,3.49,0,0,.07-3.36,2.6-3.63,0,0-2.23.06-2.6-3.63Z"/>
            </g>
            <g>
              <path class="cls-22" d="M640.7,35.5s-1.21,11.87-12.55,13.21c0,0,10.83,0,12.55,12.27,0,0,.24-11.81,9.12-12.74,0,0-7.85.21-9.12-12.74Z"/>
              <path class="cls-22" d="M639.81,73.49s-.58,5.67-6,6.32c0,0,5.18,0,6,5.87,0,0,.11-5.64,4.36-6.09,0,0-3.75.1-4.36-6.09Z"/>
              <path class="cls-22" d="M621.18,54.61s-.34,3.38-3.57,3.76c0,0,3.09,0,3.57,3.49,0,0,.07-3.36,2.6-3.63,0,0-2.23.06-2.6-3.63Z"/>
            </g>
          </g>
        </g>
      </g>
    </g>
  </g>
</svg>