<?xml version="1.0" encoding="UTF-8"?>
<svg id="Layer_2" data-name="Layer 2" xmlns="http://www.w3.org/2000/svg" viewBox="0 0 365.95 366.17">
  <defs>
    <style>
      .cls-1 {
        fill: #ed1c24;
      }

      .cls-1, .cls-2, .cls-3 {
        stroke-width: 0px;
      }

      .cls-3 {
        fill: #fff;
      }
    </style>
  </defs>
  <g id="Layer_1-2" data-name="Layer 1">
    <g>
      <path class="cls-1" d="m365.95,68.52v229.12c-.13.2-.19.43-.2.67-.01.35-.02.71-.04,1.06-.03.67-.02,1.34-.1,2-.32,2.73-.77,5.44-1.4,8.11-2.25,9.59-6.22,18.41-12.05,26.36-9.02,12.32-20.73,21.05-35.14,26.15-4.6,1.63-9.33,2.71-14.15,3.4-.78.11-1.56.19-2.34.27-1.01.11-2.03.21-3.04.31-.2.02-.39.06-.55.19H69.24c-.19-.17-.42-.19-.66-.21-1.09-.11-2.19-.19-3.28-.33-1.87-.24-3.73-.5-5.58-.84-4.02-.75-7.94-1.83-11.77-3.25-11.2-4.16-20.83-10.67-28.86-19.52-7.36-8.12-12.64-17.43-15.82-27.93-.97-3.2-1.7-6.44-2.23-9.74-.21-1.32-.37-2.64-.51-3.97-.17-1.64-.3-3.28-.32-4.93,0-.24,0-.47-.05-.7-.19-1.01-.15-2.03-.15-3.05,0-72.4,0-144.81,0-217.21,0-.43,0-.86,0-1.29.01-.39.05-.78.08-1.17.05-.59.11-1.17.14-1.76.06-1.18.11-2.35.22-3.52.17-1.88.41-3.74.71-5.6.57-3.53,1.41-6.99,2.52-10.39,4.06-12.43,10.94-23.05,20.64-31.82,7.85-7.1,16.85-12.24,26.95-15.44,2.96-.94,5.96-1.67,9.01-2.23,1.27-.23,2.56-.36,3.84-.57.89-.14,1.8-.18,2.69-.29.74-.09,1.48-.13,2.23-.15.67-.02,1.33-.04,2-.07.27-.01.55-.03.79-.19,74.18,0,148.36,0,222.53,0,.23.06.45.15.68.17.59.04,1.18.08,1.76.07,1.46-.01,2.9.17,4.34.32,1.83.2,3.65.49,5.46.83,4.21.79,8.32,1.94,12.32,3.47,10.09,3.85,18.91,9.64,26.43,17.37,7.84,8.06,13.54,17.44,17.07,28.12,1.2,3.62,2.1,7.31,2.71,11.07.31,1.9.6,3.8.58,5.73,0,.27,0,.55.05.82.03.19.12.37.19.55Zm-250.91,34.88c-.09.07-.21.13-.25.22-.15.28-.27.57-.39.85-2.12,4.81-4.24,9.62-6.35,14.43-8.8,19.99-17.6,39.99-26.4,59.98-8.12,18.45-16.25,36.9-24.37,55.34-.6,1.36-.6,1.28.86,1.28,4.32,0,8.63,0,12.95,0,10.09,0,20.17.01,30.26.02.27,0,.55,0,.82-.01.08,0,.15-.03.23-.05.09-.02.15-.2.11-.29-.22-.47-.59-.83-.94-1.19-.71-.73-1.45-1.43-2.16-2.17-.44-.45-.86-.92-1.24-1.41-1.18-1.53-2.17-3.17-2.99-4.92-.73-1.57-1.38-3.16-1.96-4.79-1.17-3.28-1.8-6.66-1.83-10.14-.02-1.81,0-3.61-.02-5.42-.03-2.18.3-4.3.88-6.39,1.21-4.39,3.15-8.44,5.73-12.19.65-.94,1.36-1.82,2.14-2.66,2.48-2.67,5.41-4.64,8.89-5.75,2.33-.75,4.73-1.07,7.18-1.05,1.99.01,3.89.39,5.74,1.1,2.11.81,3.99,2.01,5.7,3.48,1.71,1.46,3.19,3.13,4.49,4.96,1.95,2.73,3.47,5.69,4.6,8.85,1.45,4.02,2.23,8.16,2.2,12.45,0,.39,0,.78,0,1.18.02,1.81-.14,3.6-.41,5.39-.41,2.77-1.14,5.45-2.18,8.04-.71,1.79-1.63,3.48-2.56,5.16-1.15,2.08-2.55,3.95-4.33,5.54-.35.31-.69.64-1.03.97-.25.25-.5.5-.74.76-.08.08-.14.19-.18.3-.02.05.04.19.08.19.39.03.78.07,1.17.07,14.36-.02,28.73-.04,43.09-.06.31,0,.63,0,.94,0,.35,0,.47-.21.34-.55-.1-.25-.21-.51-.32-.76-9.5-21.57-19-43.14-28.51-64.71-8.7-19.74-17.39-39.48-26.09-59.22-.85-1.94-1.7-3.88-2.57-5.81-.16-.35-.25-.75-.58-1.03Zm141.44,51.89c-.04-.13-.12-.28-.13-.42-.02-.35-.02-.71-.02-1.06,0-8.59,0-17.19,0-25.78,0-.27,0-.55,0-.82,0-.12.03-.23.05-.35.02-.15.17-.3.31-.31.43-.01.86-.03,1.29-.03,12.48,0,24.96,0,37.44,0,.31,0,.63,0,.94,0,1.15,0,1.04.06,1.5-.93.86-1.85,1.7-3.71,2.56-5.56,2.26-4.92,4.52-9.84,6.77-14.76.15-.32.28-.65.41-.97.06-.14-.07-.35-.21-.36-.43-.02-.86-.04-1.29-.04-13.7,0-27.39,0-41.09,0-8.4,0-16.8,0-25.2,0-.43,0-.86,0-1.29.03-.27.01-.44.19-.45.44-.01.47-.02.94-.02,1.41,0,40.46,0,80.93,0,121.39,0,.35,0,.71,0,1.06,0,.16,0,.31.02.47.01.2.18.38.37.39.43.02.86.03,1.29.03,22.14,0,44.27,0,66.41,0,.35,0,.71,0,1.06,0,.11,0,.23-.03.34-.07.06-.02.13-.11.12-.17-.02-.19-.04-.39-.1-.57-.19-.52-.39-1.03-.6-1.53-1.23-2.93-2.6-5.79-4-8.65-.43-.88-.84-1.77-1.24-2.67-.86-1.89-1.69-3.8-2.57-5.68-.36-.78-.79-1.54-1.21-2.29-.19-.34-.44-.65-.68-.96-.15-.19-.36-.3-.61-.31-.39,0-.78-.01-1.18-.01-9.65,0-19.31,0-28.96,0-3.02,0-6.04,0-9.07,0-1.11,0-1.11,0-1.12-1.11,0-.12,0-.24,0-.35,0-8.56,0-17.11,0-25.67,0-.31,0-.63.02-.94.01-.26.2-.45.44-.46.39-.01.78-.02,1.18-.02,8.05,0,16.09,0,24.14,0,.39,0,.78,0,1.18,0,.12,0,.23-.02.35-.04.08,0,.2-.19.19-.27-.04-.19-.06-.39-.13-.57-.3-.72-.6-1.45-.93-2.16-.68-1.46-1.39-2.9-2.08-4.35-.32-.67-.62-1.35-.9-2.05-.68-1.69-.68-2.02.05-3.71.41-.94.86-1.85,1.3-2.77.61-1.27,1.24-2.54,1.84-3.81.27-.57.5-1.15.74-1.73.07-.18.09-.38.1-.57,0-.06-.07-.16-.12-.17-.31-.04-.62-.07-.93-.07-3.92,0-7.85,0-11.77,0-4.4,0-8.79,0-13.19,0-.43,0-.86.05-1.32-.08Zm-31.44,75.82c.11-.35.07-.74.07-1.13,0-7.26,0-14.52,0-21.78,0-.31-.01-.63-.03-.94,0-.2-.25-.35-.42-.27-.35.17-.7.35-1.05.54-1.18.62-2.35,1.26-3.53,1.87-1.08.56-2.2,1.02-3.36,1.41-1.65.55-3.33.88-5.08.85-1.18-.02-2.35-.01-3.53,0-1.06,0-2.12-.13-3.16-.31-2.38-.41-4.62-1.22-6.74-2.36-2.4-1.29-4.58-2.89-6.54-4.77-4.61-4.39-8.17-9.51-10.58-15.41-2.07-5.06-3.09-10.36-3.49-15.79-.05-.63-.06-1.25-.1-1.88-.27-3.7-.06-7.38.64-11.02.99-5.23,2.71-10.23,5.11-14.98,1.01-2,2.15-3.92,3.5-5.71,2.47-3.29,5.32-6.19,8.68-8.56,1.61-1.13,3.31-2.1,5.13-2.85,2.16-.89,4.4-1.42,6.74-1.5,1.57-.05,3.13-.04,4.7.14,1.72.19,3.4.56,5.04,1.13,1.41.49,2.76,1.13,4.08,1.82.84.43,1.66.89,2.49,1.34.31.17.62.33.94.49.35.17.54.07.55-.29.01-.35.01-.71.01-1.06,0-7.18,0-14.36,0-21.55,0-.31,0-.63,0-.94,0-.12-.02-.23-.04-.35-.02-.13-.18-.3-.31-.32-.27-.05-.54-.1-.81-.16-1.07-.25-2.11-.62-3.14-.97-1.45-.49-2.91-.9-4.44-1.11-2.06-.28-4.11-.56-6.19-.71-2.36-.17-4.7-.04-7.04.26-1.75.23-3.47.62-5.16,1.12-3.75,1.12-7.23,2.81-10.49,4.96-3.76,2.47-7.1,5.43-10.12,8.76-3.62,4.01-6.68,8.42-9.25,13.16-3.68,6.77-6.26,13.94-7.68,21.52-.34,1.81-.59,3.64-.76,5.48-.2,2.15-.29,4.31-.26,6.47.02,1.45,0,2.9,0,4.36,0,1.88.03,3.76.17,5.65.17,2.35.45,4.69.83,7.01.46,2.75,1.07,5.46,1.82,8.15,1.18,4.2,2.68,8.28,4.53,12.23,2.24,4.8,5.16,9.15,8.48,13.25,1.18,1.47,2.44,2.87,3.78,4.2,1.39,1.38,2.81,2.74,4.23,4.1.31.3.64.59.98.85,2.85,2.17,5.87,4.05,9.24,5.34,2.31.88,4.65,1.68,6.91,2.66.18.08.37.12.57.14,2.03.22,4.06.43,6.08.64.23.02.47.02.71.02,1.18,0,2.36.03,3.53-.01,1.21-.04,2.43-.11,3.64-.25,1.6-.19,3.18-.47,4.74-.87,1.48-.38,2.94-.84,4.35-1.44.36-.15.74-.28,1.05-.6Zm86.63-140.92c.03,2.71.09,3.62.53,5.66,1,4.58,3.2,8.49,6.62,11.69,3.56,3.33,7.78,5.23,12.63,5.68,2.6.24,5.17-.02,7.68-.77,5.25-1.59,9.33-4.75,12.23-9.38,2.73-4.36,3.83-9.13,3.39-14.27-.25-2.81-.97-5.47-2.2-8-3.6-7.46-11.27-12.71-20.19-12.32-1.42.06-2.81.26-4.18.61-4.23,1.07-7.8,3.25-10.7,6.49-3.87,4.34-5.75,9.46-5.81,14.61Zm-99.22,160.5c0-3.37,0-6.75,0-10.12,0-.31,0-.63,0-.94,0-.16-.02-.31-.03-.47-.01-.15-.16-.3-.3-.32-.12-.02-.23-.04-.35-.04-1.45,0-2.9,0-4.35,0-.12,0-.23.03-.35.04-.14.02-.29.17-.3.32-.02.35-.04.7-.04,1.06-.02,3.22-.03,6.43-.05,9.65,0,.31-.02.63-.04.94,0,.05-.09.1-.15.14-.02.01-.09-.01-.11-.04-.16-.22-.32-.45-.46-.68-2.15-3.38-4.29-6.75-6.43-10.13-.19-.3-.39-.59-.58-.89-.18-.3-.45-.41-.79-.41-1.57,0-3.14,0-4.71,0-.12,0-.23.03-.35.04-.13.02-.29.18-.3.32-.02.43-.05.86-.05,1.29,0,6.82,0,13.65,0,20.47,0,.31,0,.63,0,.94,0,.12.03.23.04.35.02.15.16.3.3.32.16.02.31.04.47.04,1.37,0,2.75,0,4.12,0,.16,0,.31-.02.47-.03.14-.01.3-.16.31-.31.03-.39.06-.78.06-1.17.02-3.41.04-6.82.06-10.24,0-.27.03-.55.05-.82,0-.02.05-.05.08-.05.03,0,.09,0,.1.01.18.25.38.5.54.76,2.19,3.49,4.38,6.97,6.57,10.46.21.33.42.66.63.99.16.25.37.39.67.39,1.57,0,3.14,0,4.71,0,.08,0,.15-.02.23-.03.14-.02.29-.17.3-.31.02-.39.04-.78.04-1.17,0-3.45,0-6.9,0-10.35Zm-90.37-.03c0-.9,0-1.8,0-2.71,0-2.59,0-5.18,0-7.77,0-.35-.03-.7-.05-1.05,0-.14-.18-.29-.32-.3-.16-.02-.31-.04-.47-.04-1.8,0-3.61,0-5.41,0-.16,0-.31.01-.47.03-.19.02-.38.19-.39.38-.02.35-.03.7-.03,1.06,0,2.12,0,4.24,0,6.36,0,.35-.02.71-.05,1.05,0,.09-.13.18-.22.24-.06.04-.15.04-.23.04-1.49,0-2.98,0-4.47,0-.08,0-.16-.01-.23-.05-.07-.03-.15-.1-.16-.16-.03-.27-.06-.55-.06-.82,0-2.16,0-4.32,0-6.47,0-.31,0-.63,0-.94,0-.12-.02-.23-.04-.35-.02-.14-.17-.3-.31-.31-.23-.02-.47-.05-.7-.05-1.69,0-3.37,0-5.06,0-.16,0-.31,0-.47.01-.35.02-.52.17-.53.49-.01.31-.02.63-.02.94,0,6.98,0,13.97,0,20.95,0,.31,0,.63.02.94,0,.08.02.16.06.22.04.06.1.14.17.15.23.03.47.06.7.06,1.41,0,2.83,0,4.24,0,.47,0,.94,0,1.41-.01.35,0,.51-.16.52-.49.01-.35.02-.71.02-1.06,0-2.31,0-4.63,0-6.94,0-.31.03-.63.06-.94,0-.06.09-.15.15-.16.19-.04.39-.07.58-.07,1.18,0,2.35,0,3.53,0,1.11,0,1.1,0,1.1,1.11,0,2.31,0,4.63,0,6.94,0,.35,0,.71.01,1.06,0,.11.03.23.07.34.03.06.1.14.16.16.19.04.39.07.58.07,1.84,0,3.69,0,5.53,0,.12,0,.23-.01.35-.02.22-.02.39-.16.4-.35.02-.39.03-.78.03-1.17,0-3.45,0-6.91,0-10.36Zm187.67.05c0-3.41,0-6.83,0-10.24,0-.35,0-.71,0-1.06,0-.12-.02-.24-.07-.34-.05-.09-.15-.2-.24-.22-.23-.05-.47-.05-.7-.06-1.14,0-2.28,0-3.41,0-.59,0-1.18,0-1.77,0-.19,0-.39.03-.58.05-.14.01-.3.17-.31.31-.02.35-.05.7-.05,1.06,0,2.2,0,4.4,0,6.59,0,.31-.03.63-.06.94,0,.06-.09.15-.16.16-.19.04-.39.06-.58.06-1.26,0-2.51,0-3.77,0-.16,0-.31-.01-.47-.02-.21-.02-.36-.16-.36-.38-.01-.67-.02-1.33-.02-2,0-1.88,0-3.77,0-5.65,0-.27-.02-.55-.07-.81-.02-.09-.14-.18-.23-.23-.1-.05-.23-.06-.34-.06-1.96,0-3.92,0-5.89,0-.04,0-.08,0-.12,0-.27.02-.45.18-.47.43-.02.31-.02.63-.02.94,0,6.99,0,13.97,0,20.96,0,.27,0,.55,0,.82,0,.12.01.24.06.34.05.09.15.17.24.22.06.04.15.04.23.04,2,0,4,0,6,0,.08,0,.15-.02.23-.03.14-.02.31-.16.32-.3.02-.35.05-.7.05-1.06,0-2.28,0-4.55,0-6.83,0-.35,0-.71.02-1.06,0-.22.15-.38.37-.38,1.57,0,3.14,0,4.71.01.04,0,.09,0,.11.03.06.05.14.11.15.17.04.19.06.39.06.58,0,.9,0,1.81,0,2.71,0,1.69,0,3.37,0,5.06,0,.27.02.55.07.82.02.09.15.19.24.22.19.05.39.06.58.06,1.81,0,3.61,0,5.42,0,.16,0,.31-.02.47-.03.15-.01.31-.16.32-.29.02-.39.05-.78.05-1.17,0-3.45,0-6.91,0-10.36Zm-80.95,4.16c.13.35.07.66-.02.97-.12.41-.31.8-.54,1.17-.69,1.1-1.67,1.62-2.97,1.51-1.1-.09-1.93-.59-2.44-1.59-.25-.49-.4-1.02-.48-1.57-.1-.7-.21-1.4-.22-2.11-.04-1.53-.04-3.06,0-4.59.02-1.06.18-2.11.44-3.14.15-.57.37-1.12.72-1.6.52-.72,1.23-1.07,2.11-1.11.4-.02.78.05,1.16.16.78.22,1.3.73,1.56,1.48.14.4.21.84.27,1.26.05.35.05.7.08,1.06.03.39.18.53.61.54.16,0,.31,0,.47,0,1.61,0,3.22,0,4.83,0,.2,0,.39,0,.59-.02.26-.01.4-.19.4-.47,0-.87-.11-1.72-.35-2.56-.63-2.15-1.92-3.75-3.92-4.76-.45-.23-.94-.4-1.42-.57-.93-.33-1.91-.43-2.88-.54-1.66-.19-3.3-.05-4.9.35-2.35.58-4.19,1.91-5.48,3.97-.65,1.04-1.1,2.16-1.42,3.35-.51,1.91-.64,3.87-.59,5.83.03,1.06.1,2.11.32,3.16.25,1.2.62,2.35,1.22,3.42,1.03,1.86,2.55,3.16,4.56,3.87,1.34.47,2.73.69,4.16.67,1.97-.03,3.79-.57,5.41-1.71.16-.11.32-.23.48-.34.12-.09.33-.05.41.08.27.43.54.87.81,1.29.15.23.32.43.46.62,1.3.1,1.96.08,2.78-.05.04-.14.1-.28.11-.43.02-.35.02-.71.02-1.06,0-2.2,0-4.39,0-6.59,0-.98,0-1.96,0-2.94,0-.24,0-.47-.02-.71-.02-.29-.16-.44-.42-.46-.16,0-.31-.02-.47-.02-2.63,0-5.26,0-7.89,0-.2,0-.39.02-.59.03-.14.01-.3.17-.31.31-.07,1.14-.09,2.27,0,3.41.01.13.19.28.32.3.12.01.23.03.35.03.67,0,1.33,0,2,0,.23,0,.46.05.67.07Zm-67.68-7.27c0,2.27,0,4.55,0,6.82,0,.55-.04,1.1-.07,1.64-.03.44-.18.84-.38,1.23-.22.43-.55.77-1,.96-1.03.43-2.07.4-3.07-.11-.39-.2-.7-.51-.89-.91-.12-.24-.21-.51-.28-.77-.16-.61-.16-1.24-.16-1.87,0-4.71,0-9.41,0-14.12,0-.35,0-.71,0-1.06,0-.12-.02-.24-.07-.34-.05-.09-.14-.2-.24-.23-.14-.05-.31-.05-.46-.05-1.84,0-3.69,0-5.53,0-.16,0-.31.02-.47.04-.14.02-.31.17-.32.3-.02.31-.05.62-.05.94,0,4.9,0,9.8,0,14.71,0,.75.06,1.49.2,2.22.46,2.45,1.79,4.22,4.12,5.18.18.07.37.14.55.2,1.16.4,2.36.56,3.58.63,1.3.07,2.59,0,3.87-.23,1.16-.21,2.28-.55,3.31-1.16,1.14-.68,2.03-1.59,2.6-2.8.33-.72.58-1.46.65-2.25.06-.74.12-1.49.13-2.23.01-4.67,0-9.33,0-14,0-.31,0-.63-.02-.94,0-.12-.02-.24-.07-.34-.05-.09-.16-.18-.25-.21-.15-.05-.31-.06-.46-.06-1.45,0-2.9,0-4.35,0-.16,0-.31.02-.47.04-.14.01-.31.17-.32.31-.03.35-.06.7-.06,1.05,0,2.47,0,4.94,0,7.41Zm-89.9,14.92c.24.02.43.04.62.04,1.88,0,3.77,0,5.65,0,.16,0,.31-.02.47-.03.13-.01.26-.2.24-.35-.04-.23-.08-.46-.14-.69-1.16-4.64-2.33-9.28-3.49-13.92-.67-2.66-1.34-5.32-2.02-7.98-.05-.19-.11-.38-.2-.55-.05-.09-.17-.19-.26-.2-.31-.04-.62-.05-.94-.05-2.2,0-4.39,0-6.59,0-1.73,0-1.46-.18-1.94,1.51-1.48,5.28-2.95,10.57-4.42,15.86-.49,1.78-.99,3.55-1.48,5.33-.07.26-.12.53-.17.8-.02.09.1.23.21.24.16.01.31.04.47.04,1.49,0,2.98,0,4.47,0,.19,0,.39-.03.61-.05.09-.19.19-.35.25-.53.12-.41.22-.83.33-1.25.23-.87.47-1.74.71-2.61.05-.17.17-.25.34-.28.12-.02.23-.04.35-.04,1.69,0,3.37,0,5.06,0,.08,0,.16,0,.23.01.28.02.45.15.51.4.25,1.07.5,2.14.74,3.21.08.34.15.69.38,1.1Zm66.43-4.59c.09.32.19.62.26.92.18.76.35,1.53.52,2.29.08.34.16.69.25,1.03.07.25.23.37.52.38.24,0,.47.01.71.01,1.65,0,3.3,0,4.94,0,1.15,0,1.11-.01.86-1.12-.02-.08-.05-.15-.07-.23-1.77-7.03-3.53-14.07-5.3-21.1-.09-.34-.18-.68-.29-1.02-.05-.15-.18-.26-.35-.27-.27-.02-.55-.04-.82-.04-2.35,0-4.71,0-7.06,0-.2,0-.39,0-.59,0-.4.02-.53.12-.67.53-.07.22-.13.45-.19.68-1.79,6.42-3.58,12.84-5.37,19.26-.21.76-.44,1.51-.63,2.27-.08.3-.21.6-.09.95.14.02.29.07.44.07,1.57,0,3.14,0,4.71,0,.12,0,.23-.01.35-.03.17-.03.28-.14.34-.29.06-.14.1-.3.14-.45.24-.91.47-1.82.72-2.73.09-.34.19-.68.31-1.01.03-.09.17-.15.27-.2.07-.03.15-.04.23-.04,1.8,0,3.61,0,5.41,0,.15,0,.3.07.46.11Zm33.21-7.21c0,3.49,0,6.98,0,10.48,0,.31,0,.63.02.94.01.25.2.41.47.42.27,0,.55.01.82.01,4.98,0,9.97,0,14.95,0,.31,0,.63-.01.94-.03.19,0,.37-.18.37-.38,0-1.33,0-2.67,0-4,0-.04,0-.08-.01-.12-.01-.11-.19-.32-.3-.32-.39-.02-.78-.05-1.17-.05-2.55,0-5.1,0-7.65,0-.35,0-.7-.04-1.05-.08-.06,0-.13-.09-.16-.15-.04-.06-.06-.15-.06-.22,0-1.29,0-2.59,0-3.88,0-.04.02-.08.02-.12.02-.14.17-.28.32-.28.31-.01.63-.03.94-.03,1.53,0,3.06,0,4.59,0,.27,0,.55-.02.82-.06.1-.02.21-.12.25-.21.06-.14.08-.3.08-.46,0-1.1,0-2.2,0-3.3,0-.12-.03-.23-.04-.35-.02-.14-.17-.29-.32-.3-.27-.02-.55-.03-.82-.03-1.53,0-3.06,0-4.59,0-.31,0-.63-.02-.94-.03-.14,0-.27-.16-.29-.32,0-.04-.02-.08-.02-.12,0-1.26,0-2.51,0-3.77,0-.08.01-.16.05-.23.03-.07.1-.15.16-.16.31-.03.62-.05.94-.05,2.63,0,5.26,0,7.89,0,.35,0,.71-.02,1.06-.04.14,0,.28-.16.3-.31.01-.12.03-.23.03-.35,0-1.1,0-2.2,0-3.3,0-.12-.02-.23-.03-.35-.02-.13-.18-.31-.3-.32-.31-.02-.63-.05-.94-.05-5.02,0-10.05,0-15.07,0-.24,0-.47,0-.71.01-.39.02-.51.2-.52.5-.02.35-.02.71-.02,1.06,0,3.45,0,6.91,0,10.36Zm110.24-5.16c.2-.06.39-.09.57-.16,1.44-.5,2.88-1.01,4.32-1.52.15-.05.29-.12.44-.18.13-.05.21-.27.15-.4-.04-.11-.08-.22-.14-.32-.43-.81-1.01-1.49-1.71-2.08-1.03-.87-2.19-1.51-3.47-1.94-.86-.28-1.75-.42-2.64-.54-1.51-.21-2.98-.05-4.43.34-1.74.47-3.24,1.38-4.49,2.68-.69.72-1.18,1.56-1.42,2.54-.16.66-.16,1.33-.09,1.99.28,2.5,1.53,4.32,3.82,5.39.32.15.65.28.98.4,1.43.54,2.86,1.08,4.29,1.61.59.22,1.17.46,1.7.79.4.25.77.54,1.06.92.27.35.42.75.44,1.19.03.55-.16,1-.58,1.35-.47.39-1,.62-1.6.66-.43.03-.86.04-1.29,0-1.01-.07-1.91-.45-2.61-1.19-.35-.37-.64-.79-.94-1.2-.16-.22-.29-.47-.44-.7-.07-.12-.28-.18-.42-.14-.04.01-.08.02-.11.03-1.63.55-3.27,1.1-4.9,1.66-.18.06-.35.17-.5.24,0,.12,0,.21.02.28.05.15.11.3.18.43.87,1.69,2.15,2.97,3.82,3.88,1.69.92,3.51,1.33,5.41,1.44,1.1.06,2.2-.03,3.28-.23,1.84-.34,3.52-1.08,4.97-2.28,1.59-1.32,2.5-2.98,2.64-5.06.11-1.61-.34-3.02-1.45-4.21-.65-.7-1.4-1.26-2.26-1.67-.53-.25-1.07-.49-1.62-.7-1.43-.55-2.86-1.08-4.29-1.61-.59-.22-1.17-.46-1.71-.77-.34-.2-.66-.43-.92-.73-.34-.39-.41-.84-.28-1.32.11-.39.33-.71.67-.93.4-.26.84-.43,1.32-.46,1.44-.1,2.62.38,3.48,1.56.14.19.26.39.4.58.09.12.2.23.32.37Zm-194.36,5.23c.06-1.06.11-2.31.22-3.56.06-.78.23-1.55.51-2.29.21-.55.49-1.07.95-1.47,1.13-.98,2.95-.86,3.84.41.18.25.33.54.44.83.16.4.28.81.31,1.25.02.27.06.54.11.82.03.18.22.34.41.35.12.01.23.02.35.02,1.73,0,3.45,0,5.18,0,.12,0,.23-.02.35-.03.19-.02.36-.21.35-.41-.03-1.23-.24-2.41-.76-3.54-.94-2.04-2.5-3.38-4.58-4.14-.92-.34-1.89-.48-2.87-.61-1.66-.21-3.29-.06-4.9.32-2.22.53-4.01,1.73-5.34,3.6-.43.61-.78,1.26-1.08,1.95-.68,1.57-.99,3.22-1.11,4.91-.12,1.65-.06,3.29.22,4.92.25,1.44.67,2.82,1.39,4.1,1.12,2,2.77,3.38,4.93,4.13.82.28,1.66.44,2.52.56,1.89.26,3.76.12,5.59-.4,1.3-.37,2.46-1.01,3.45-1.94,1.7-1.59,2.44-3.6,2.53-5.89,0-.25-.15-.43-.43-.47-.35-.05-.7-.1-1.05-.13-1.02-.08-2.03-.16-3.05-.23-.39-.03-.78-.05-1.17-.05-.29,0-.44.05-.48.39-.05.39-.09.78-.11,1.17-.03.51-.16,1.01-.35,1.48-.29.73-.8,1.24-1.56,1.49-.81.26-1.61.26-2.42,0-.67-.22-1.17-.63-1.5-1.25-.18-.34-.34-.71-.43-1.09-.13-.53-.23-1.08-.27-1.62-.09-1.13-.13-2.27-.2-3.61Zm150.87-.11c0,3.49,0,6.98,0,10.47,0,.35.02.7.04,1.06,0,.14.16.31.3.31.35.02.7.04,1.06.04,4.63,0,9.26,0,13.89,0,.27,0,.55,0,.82,0,.47-.02.6-.14.6-.66,0-.98,0-1.96,0-2.94,0-.12-.02-.23-.04-.35-.02-.14-.17-.29-.32-.29-.31-.02-.63-.03-.94-.03-2.28,0-4.55,0-6.83,0-1.55,0-1.45.2-1.45-1.46,0-5.41,0-10.83,0-16.24,0-.35,0-.71,0-1.06,0-.12-.02-.23-.03-.35-.02-.18-.2-.34-.41-.36-.12,0-.23-.02-.35-.02-1.84,0-3.69,0-5.53,0-.16,0-.31.03-.47.05-.13.02-.3.18-.31.31-.02.39-.05.78-.05,1.17,0,3.45,0,6.9,0,10.36Zm27.82.1v-.47c0-3.41,0-6.83,0-10.24,0-.31-.02-.62-.05-.94,0-.14-.17-.29-.31-.3-.19-.02-.39-.04-.59-.04-1.73,0-3.45,0-5.18,0-.16,0-.31,0-.47.01-.35.02-.52.17-.53.49-.01.35-.02.71-.02,1.06,0,3.69,0,7.37,0,11.06,0,3.26,0,6.51,0,9.77,0,.35.02.7.04,1.06,0,.13.17.28.32.29.2.01.39.03.59.03,1.73,0,3.45,0,5.18,0,.16,0,.31,0,.47,0,.36-.02.52-.15.53-.48.01-.35.02-.71.02-1.06,0-3.41,0-6.83,0-10.24Z"/>
      <path class="cls-3" d="m115.03,103.4c.33.28.42.68.58,1.03.86,1.93,1.71,3.87,2.57,5.81,8.7,19.74,17.39,39.48,26.09,59.22,9.5,21.57,19,43.14,28.51,64.71.11.25.22.5.32.76.13.34,0,.54-.34.55-.31,0-.63,0-.94,0-14.36.02-28.73.04-43.09.06-.39,0-.78-.03-1.17-.07-.03,0-.09-.14-.08-.19.04-.11.1-.22.18-.3.24-.26.49-.51.74-.76.34-.33.68-.66,1.03-.97,1.78-1.58,3.18-3.46,4.33-5.54.93-1.68,1.85-3.37,2.56-5.16,1.04-2.6,1.76-5.28,2.18-8.04.27-1.79.43-3.58.41-5.39,0-.39,0-.78,0-1.18.04-4.28-.75-8.43-2.2-12.45-1.13-3.15-2.65-6.12-4.6-8.85-1.31-1.83-2.79-3.5-4.49-4.96-1.71-1.46-3.59-2.66-5.7-3.48-1.85-.71-3.75-1.09-5.74-1.1-2.45-.01-4.85.3-7.18,1.05-3.48,1.12-6.41,3.08-8.89,5.75-.77.84-1.49,1.72-2.14,2.66-2.58,3.75-4.52,7.8-5.73,12.19-.58,2.09-.91,4.21-.88,6.39.02,1.8,0,3.61.02,5.42.03,3.48.66,6.86,1.83,10.14.58,1.63,1.24,3.22,1.96,4.79.81,1.75,1.81,3.39,2.99,4.92.38.5.81.96,1.24,1.41.71.73,1.45,1.44,2.16,2.17.35.36.72.72.94,1.19.05.1-.01.27-.11.29-.08.02-.15.05-.23.05-.27,0-.55.01-.82.01-10.09,0-20.17-.01-30.26-.02-4.32,0-8.63,0-12.95,0-1.46,0-1.46.07-.86-1.28,8.12-18.45,16.25-36.9,24.37-55.34,8.8-19.99,17.6-39.99,26.4-59.98,2.12-4.81,4.23-9.62,6.35-14.43.13-.29.25-.58.39-.85.05-.09.17-.15.25-.22Z"/>
      <path class="cls-3" d="m256.47,155.29c.46.13.89.08,1.32.08,4.4,0,8.79,0,13.19,0,3.92,0,7.85,0,11.77,0,.31,0,.62.03.93.07.05,0,.12.11.12.17-.02.19-.03.39-.1.57-.23.58-.47,1.17-.74,1.73-.6,1.28-1.23,2.54-1.84,3.81-.44.92-.89,1.83-1.3,2.77-.73,1.69-.73,2.03-.05,3.71.28.69.58,1.37.9,2.05.69,1.45,1.4,2.9,2.08,4.35.33.71.63,1.44.93,2.16.07.18.09.38.13.57.02.08-.11.26-.19.27-.12.01-.23.03-.35.04-.39,0-.78,0-1.18,0-8.05,0-16.09,0-24.14,0-.39,0-.78,0-1.18.02-.24,0-.43.2-.44.46-.02.31-.02.63-.02.94,0,8.56,0,17.11,0,25.67,0,.12,0,.24,0,.35.01,1.1.01,1.11,1.12,1.11,3.02,0,6.04,0,9.07,0,9.65,0,19.31,0,28.96,0,.39,0,.78,0,1.18.01.25,0,.46.11.61.31.24.31.48.62.68.96.42.75.85,1.51,1.21,2.29.87,1.89,1.71,3.79,2.57,5.68.4.89.81,1.79,1.24,2.67,1.4,2.85,2.77,5.72,4,8.65.21.51.42,1.02.6,1.53.07.18.09.38.1.57,0,.05-.07.15-.12.17-.11.04-.23.07-.34.07-.35,0-.71,0-1.06,0-22.14,0-44.27,0-66.41,0-.43,0-.86-.02-1.29-.03-.19,0-.35-.19-.37-.39-.01-.16-.02-.31-.02-.47,0-.35,0-.71,0-1.06,0-40.46,0-80.93,0-121.39,0-.47,0-.94.02-1.41,0-.26.18-.43.45-.44.43-.02.86-.03,1.29-.03,8.4,0,16.8,0,25.2,0,13.7,0,27.39,0,41.09,0,.43,0,.86.02,1.29.04.14,0,.27.22.21.36-.13.33-.27.65-.41.97-2.26,4.92-4.52,9.84-6.77,14.76-.85,1.85-1.69,3.71-2.56,5.56-.46.99-.35.93-1.5.93-.31,0-.63,0-.94,0-12.48,0-24.96,0-37.44,0-.43,0-.86.02-1.29.03-.14,0-.29.16-.31.31-.02.12-.04.23-.05.35,0,.27,0,.55,0,.82,0,8.59,0,17.19,0,25.78,0,.35,0,.71.02,1.06.01.15.09.29.13.42Z"/>
      <path class="cls-3" d="m225.03,231.11c-.31.32-.69.45-1.05.6-1.41.6-2.87,1.06-4.35,1.44-1.56.4-3.14.68-4.74.87-1.21.14-2.42.21-3.64.25-1.18.04-2.35.01-3.53.01-.24,0-.47,0-.71-.02-2.03-.21-4.06-.42-6.08-.64-.19-.02-.39-.06-.57-.14-2.27-.98-4.61-1.78-6.91-2.66-3.37-1.29-6.38-3.17-9.24-5.34-.34-.26-.67-.55-.98-.85-1.41-1.36-2.83-2.71-4.23-4.1-1.34-1.33-2.59-2.73-3.78-4.2-3.32-4.1-6.24-8.46-8.48-13.25-1.85-3.95-3.35-8.03-4.53-12.23-.75-2.68-1.37-5.4-1.82-8.15-.38-2.32-.66-4.66-.83-7.01-.13-1.88-.16-3.76-.17-5.65,0-1.45.02-2.9,0-4.36-.03-2.16.06-4.32.26-6.47.17-1.84.42-3.66.76-5.48,1.42-7.58,4-14.74,7.68-21.52,2.57-4.74,5.63-9.15,9.25-13.16,3.02-3.33,6.35-6.29,10.12-8.76,3.27-2.14,6.74-3.84,10.49-4.96,1.69-.5,3.41-.89,5.16-1.12,2.34-.31,4.68-.43,7.04-.26,2.08.15,4.13.44,6.19.71,1.53.2,2.99.62,4.44,1.11,1.04.35,2.08.72,3.14.97.27.06.54.1.81.16.13.03.29.2.31.32.02.12.04.23.04.35,0,.31,0,.63,0,.94,0,7.18,0,14.36,0,21.55,0,.35,0,.71-.01,1.06-.01.36-.2.46-.55.29-.32-.16-.63-.32-.94-.49-.83-.44-1.65-.9-2.49-1.34-1.32-.69-2.67-1.33-4.08-1.82-1.64-.57-3.31-.94-5.04-1.13-1.57-.18-3.14-.19-4.7-.14-2.33.07-4.58.6-6.74,1.5-1.82.75-3.52,1.72-5.13,2.85-3.37,2.37-6.22,5.27-8.68,8.56-1.35,1.79-2.49,3.71-3.5,5.71-2.4,4.75-4.12,9.75-5.11,14.98-.69,3.64-.91,7.32-.64,11.02.05.63.06,1.25.1,1.88.4,5.43,1.43,10.72,3.49,15.79,2.41,5.9,5.97,11.02,10.58,15.41,1.97,1.88,4.14,3.49,6.54,4.77,2.12,1.14,4.37,1.95,6.74,2.36,1.04.18,2.09.32,3.16.31,1.18,0,2.36-.02,3.53,0,1.75.03,3.43-.29,5.08-.85,1.15-.39,2.28-.85,3.36-1.41,1.18-.61,2.36-1.25,3.53-1.87.35-.18.69-.36,1.05-.54.17-.09.42.07.42.27.01.31.03.63.03.94,0,7.26,0,14.52,0,21.78,0,.39.04.78-.07,1.13Z"/>
      <path class="cls-3" d="m311.66,90.2c.05-5.16,1.93-10.27,5.81-14.61,2.9-3.25,6.47-5.42,10.7-6.49,1.37-.35,2.76-.55,4.18-.61,8.92-.38,16.59,4.87,20.19,12.32,1.22,2.53,1.95,5.2,2.2,8,.45,5.14-.65,9.91-3.39,14.27-2.9,4.63-6.98,7.79-12.23,9.38-2.51.76-5.08,1.02-7.68.77-4.85-.46-9.07-2.35-12.63-5.68-3.42-3.2-5.61-7.11-6.62-11.69-.45-2.04-.5-2.96-.53-5.66Zm38.41.84c-.04-.55-.08-1.09-.12-1.64-.11-1.86-.56-3.64-1.26-5.35-2.63-6.41-8.94-10.96-16.27-10.57-1.3.07-2.57.27-3.81.65-3.62,1.09-6.54,3.18-8.75,6.23-2.93,4.04-3.93,8.57-3.16,13.48.62,3.93,2.37,7.3,5.3,9.99,4.43,4.07,9.62,5.35,15.48,3.96,3.63-1.03,6.6-3.04,8.89-6.03,2.42-3.15,3.59-6.75,3.7-10.71Z"/>
      <path class="cls-3" d="m212.45,250.7c0,3.45,0,6.9,0,10.35,0,.39-.02.78-.04,1.17,0,.14-.16.3-.3.31-.08,0-.15.03-.23.03-1.57,0-3.14,0-4.71,0-.31,0-.52-.14-.67-.39-.21-.33-.42-.66-.63-.99-2.19-3.49-4.38-6.97-6.57-10.46-.17-.26-.36-.51-.54-.76-.01-.02-.07-.02-.1-.01-.03,0-.08.03-.08.05-.02.27-.05.55-.05.82-.02,3.41-.04,6.82-.06,10.24,0,.39-.04.78-.06,1.17,0,.14-.17.29-.31.31-.16.01-.31.03-.47.03-1.37,0-2.75,0-4.12,0-.16,0-.31-.02-.47-.04-.14-.01-.28-.17-.3-.32-.02-.12-.04-.23-.04-.35,0-.31,0-.63,0-.94,0-6.82,0-13.65,0-20.47,0-.43.03-.86.05-1.29,0-.14.17-.3.3-.32.12-.02.23-.04.35-.04,1.57,0,3.14,0,4.71,0,.34,0,.61.11.79.41.19.3.39.59.58.89,2.14,3.38,4.29,6.75,6.43,10.13.15.23.3.46.46.68.02.03.08.05.11.04.06-.04.15-.09.15-.14.03-.31.04-.62.04-.94.02-3.22.03-6.43.05-9.65,0-.35.02-.7.04-1.06,0-.14.16-.3.3-.32.12-.02.23-.04.35-.04,1.45,0,2.9,0,4.35,0,.12,0,.23.03.35.04.13.02.28.18.3.32.02.16.03.31.03.47,0,.31,0,.63,0,.94,0,3.37,0,6.75,0,10.12Z"/>
      <path class="cls-3" d="m122.08,250.67c0,3.45,0,6.91,0,10.36,0,.39-.02.78-.03,1.17,0,.2-.18.34-.4.35-.12,0-.23.02-.35.02-1.84,0-3.69,0-5.53,0-.19,0-.39-.03-.58-.07-.06-.01-.14-.09-.16-.16-.04-.11-.07-.23-.07-.34-.01-.35-.01-.71-.01-1.06,0-2.31,0-4.63,0-6.94,0-1.11,0-1.1-1.1-1.11-1.18,0-2.35,0-3.53,0-.19,0-.39.03-.58.07-.06.01-.15.1-.15.16-.03.31-.06.62-.06.94,0,2.31,0,4.63,0,6.94,0,.35,0,.71-.02,1.06-.01.33-.18.48-.52.49-.47.01-.94.01-1.41.01-1.41,0-2.83,0-4.24,0-.23,0-.47-.02-.7-.06-.06,0-.13-.09-.17-.15-.04-.06-.06-.15-.06-.22-.01-.31-.02-.63-.02-.94,0-6.98,0-13.97,0-20.95,0-.31,0-.63.02-.94.01-.32.19-.47.53-.49.16,0,.31-.01.47-.01,1.69,0,3.37,0,5.06,0,.23,0,.47.03.7.05.14.01.29.17.31.31.02.12.04.23.04.35,0,.31,0,.63,0,.94,0,2.16,0,4.32,0,6.47,0,.27.03.55.06.82,0,.06.09.13.16.16.07.04.15.05.23.05,1.49,0,2.98,0,4.47,0,.08,0,.17,0,.23-.04.09-.06.21-.15.22-.24.04-.35.05-.7.05-1.05,0-2.12,0-4.24,0-6.36,0-.35.02-.71.03-1.06,0-.19.2-.36.39-.38.16-.01.31-.03.47-.03,1.8,0,3.61,0,5.41,0,.16,0,.31.02.47.04.14.01.31.16.32.3.02.35.05.7.05,1.05,0,2.59,0,5.18,0,7.77,0,.9,0,1.8,0,2.71Z"/>
      <path class="cls-3" d="m309.75,250.72c0,3.45,0,6.91,0,10.36,0,.39-.03.78-.05,1.17,0,.14-.17.28-.32.29-.16.01-.31.03-.47.03-1.81,0-3.61,0-5.42,0-.19,0-.39,0-.58-.06-.1-.02-.23-.13-.24-.22-.05-.27-.07-.54-.07-.82,0-1.69,0-3.37,0-5.06,0-.9,0-1.81,0-2.71,0-.19-.02-.39-.06-.58-.01-.06-.09-.12-.15-.17-.03-.02-.07-.03-.11-.03-1.57,0-3.14-.01-4.71-.01-.21,0-.36.16-.37.38-.01.35-.02.71-.02,1.06,0,2.28,0,4.55,0,6.83,0,.35-.03.7-.05,1.06,0,.14-.17.28-.32.3-.08,0-.15.03-.23.03-2,0-4,0-6,0-.08,0-.17,0-.23-.04-.09-.06-.2-.13-.24-.22-.05-.1-.06-.23-.06-.34-.01-.27,0-.55,0-.82,0-6.99,0-13.97,0-20.96,0-.31,0-.63.02-.94.01-.25.2-.41.47-.43.04,0,.08,0,.12,0,1.96,0,3.92,0,5.89,0,.12,0,.24.01.34.06.1.05.22.14.23.23.05.27.07.54.07.81,0,1.88,0,3.77,0,5.65,0,.67,0,1.33.02,2,0,.22.15.36.36.38.16.01.31.02.47.02,1.26,0,2.51,0,3.77,0,.19,0,.39-.02.58-.06.06-.01.15-.1.16-.16.03-.31.06-.62.06-.94,0-2.2,0-4.4,0-6.59,0-.35.03-.7.05-1.06,0-.14.17-.3.31-.31.19-.02.39-.04.58-.05.59,0,1.18,0,1.77,0,1.14,0,2.28,0,3.41,0,.23,0,.47,0,.7.06.09.02.19.13.24.22.05.1.07.22.07.34.01.35,0,.71,0,1.06,0,3.41,0,6.83,0,10.24Z"/>
      <path class="cls-3" d="m228.81,254.88c-.21-.02-.44-.07-.67-.07-.67-.01-1.33,0-2,0-.12,0-.23-.01-.35-.03-.14-.01-.31-.16-.32-.3-.1-1.13-.08-2.27,0-3.41,0-.14.17-.3.31-.31.19-.02.39-.03.59-.03,2.63,0,5.26,0,7.89,0,.16,0,.31,0,.47.02.26.02.4.17.42.46.01.23.02.47.02.71,0,.98,0,1.96,0,2.94,0,2.2,0,4.39,0,6.59,0,.35,0,.71-.02,1.06,0,.15-.07.3-.11.43-.82.13-1.47.14-2.78.05-.14-.19-.31-.4-.46-.62-.28-.43-.54-.86-.81-1.29-.08-.13-.29-.17-.41-.08-.16.11-.32.23-.48.34-1.62,1.14-3.44,1.68-5.41,1.71-1.42.02-2.81-.2-4.16-.67-2.01-.71-3.52-2.01-4.56-3.87-.6-1.07-.96-2.23-1.22-3.42-.22-1.04-.29-2.1-.32-3.16-.05-1.97.08-3.92.59-5.83.31-1.18.77-2.31,1.42-3.35,1.29-2.06,3.13-3.39,5.48-3.97,1.61-.4,3.24-.55,4.9-.35.98.11,1.95.22,2.88.54.48.17.96.34,1.42.57,2,1.01,3.29,2.61,3.92,4.76.24.83.35,1.69.35,2.56,0,.29-.14.46-.4.47-.2,0-.39.02-.59.02-1.61,0-3.22,0-4.83,0-.16,0-.31,0-.47,0-.43-.02-.58-.15-.61-.54-.03-.35-.02-.71-.08-1.06-.06-.42-.13-.86-.27-1.26-.26-.75-.77-1.25-1.56-1.48-.38-.11-.76-.18-1.16-.16-.87.04-1.59.39-2.11,1.11-.35.48-.57,1.03-.72,1.6-.26,1.03-.42,2.08-.44,3.14-.03,1.53-.03,3.06,0,4.59.02.7.12,1.41.22,2.11.08.54.23,1.08.48,1.57.51.99,1.34,1.5,2.44,1.59,1.3.1,2.28-.42,2.97-1.51.23-.37.41-.76.54-1.17.09-.3.14-.61.02-.97Z"/>
      <path class="cls-3" d="m161.13,247.61c0-2.47,0-4.94,0-7.41,0-.35.03-.7.06-1.05.01-.14.18-.29.32-.31.16-.02.31-.04.47-.04,1.45,0,2.9,0,4.35,0,.16,0,.32,0,.46.06.1.03.2.12.25.21.06.1.07.23.07.34.01.31.02.63.02.94,0,4.67,0,9.33,0,14,0,.74-.06,1.49-.13,2.23-.07.79-.31,1.53-.65,2.25-.56,1.21-1.45,2.13-2.6,2.8-1.03.61-2.15.95-3.31,1.16-1.28.23-2.57.31-3.87.23-1.22-.07-2.42-.23-3.58-.63-.18-.06-.37-.13-.55-.2-2.34-.96-3.67-2.73-4.12-5.18-.14-.73-.2-1.47-.2-2.22,0-4.9,0-9.8,0-14.71,0-.31.03-.62.05-.94,0-.13.18-.29.32-.3.16-.02.31-.04.47-.04,1.84,0,3.69,0,5.53,0,.16,0,.32,0,.46.05.1.03.19.14.24.23.05.1.07.23.07.34.01.35,0,.71,0,1.06,0,4.71,0,9.41,0,14.12,0,.63,0,1.26.16,1.87.07.26.16.53.28.77.19.4.5.71.89.91,1,.51,2.03.54,3.07.11.45-.19.77-.53,1-.96.2-.38.35-.79.38-1.23.04-.55.07-1.1.07-1.64,0-2.27,0-4.55,0-6.82Z"/>
      <path class="cls-3" d="m71.23,262.53c-.23-.41-.3-.75-.38-1.1-.24-1.07-.49-2.14-.74-3.21-.06-.25-.23-.38-.51-.4-.08,0-.16-.01-.23-.01-1.69,0-3.37,0-5.06,0-.12,0-.23.02-.35.04-.16.03-.29.11-.34.28-.24.87-.48,1.74-.71,2.61-.11.42-.21.84-.33,1.25-.05.18-.16.35-.25.53-.22.02-.41.05-.61.05-1.49,0-2.98,0-4.47,0-.16,0-.31-.02-.47-.04-.11,0-.23-.15-.21-.24.05-.27.1-.54.17-.8.49-1.78.98-3.55,1.48-5.33,1.47-5.29,2.93-10.58,4.42-15.86.48-1.69.2-1.5,1.94-1.51,2.2,0,4.39,0,6.59,0,.31,0,.63.01.94.05.1.01.22.11.26.2.09.17.15.36.2.55.68,2.66,1.35,5.32,2.02,7.98,1.17,4.64,2.33,9.28,3.49,13.92.06.23.1.46.14.69.02.15-.11.34-.24.35-.16.01-.31.03-.47.03-1.88,0-3.77,0-5.65,0-.19,0-.39-.02-.62-.04Zm-4.26-17.83c-.08.26-.17.51-.24.77-.62,2.39-1.24,4.77-1.86,7.16-.02.08-.04.15-.05.23-.01.08-.02.16-.03.23-.03.2.12.4.32.4,1.17,0,2.35,0,3.52,0,.04,0,.07-.02.11-.03.08,0,.22-.18.21-.26-.02-.19-.03-.39-.07-.58-.29-1.38-.58-2.76-.87-4.14-.24-1.15-.48-2.3-.73-3.45-.03-.16-.1-.29-.31-.35Z"/>
      <path class="cls-3" d="m137.66,257.94c-.16-.04-.31-.11-.46-.11-1.8,0-3.61,0-5.41,0-.08,0-.16,0-.23.04-.1.05-.23.11-.27.2-.12.33-.22.67-.31,1.01-.24.91-.48,1.82-.72,2.73-.04.15-.08.3-.14.45-.06.15-.17.26-.34.29-.12.02-.23.03-.35.03-1.57,0-3.14,0-4.71,0-.15,0-.3-.05-.44-.07-.12-.36.01-.66.09-.95.2-.76.42-1.51.63-2.27,1.79-6.42,3.58-12.84,5.37-19.26.06-.23.12-.46.19-.68.13-.41.27-.52.67-.53.2,0,.39,0,.59,0,2.35,0,4.71,0,7.06,0,.27,0,.55.02.82.04.17.01.3.12.35.27.11.33.21.67.29,1.02,1.77,7.03,3.54,14.07,5.3,21.1.02.08.05.15.07.23.25,1.11.29,1.12-.86,1.12-1.65,0-3.3,0-4.94,0-.24,0-.47,0-.71-.01-.29-.01-.46-.13-.52-.38-.09-.34-.17-.68-.25-1.03-.18-.76-.34-1.53-.52-2.29-.07-.3-.17-.6-.26-.92Zm-3.29-4.4s0-.02,0-.02c.51,0,1.02,0,1.53,0,.15,0,.31-.04.46-.06.07,0,.22-.18.22-.25-.03-.27-.05-.55-.1-.81-.12-.61-.26-1.22-.39-1.83-.39-1.83-.78-3.67-1.17-5.5-.02-.11-.08-.21-.14-.31,0-.01-.1-.01-.11,0-.06.09-.14.19-.17.29-.48,1.81-.95,3.63-1.42,5.45-.21.79-.42,1.59-.62,2.38-.03.11-.03.23-.05.35,0,.08.13.25.21.25.58.02,1.17.05,1.75.07Z"/>
      <path class="cls-3" d="m170.87,250.73c0-3.45,0-6.91,0-10.36,0-.35,0-.71.02-1.06.02-.3.14-.48.52-.5.24,0,.47-.01.71-.01,5.02,0,10.05,0,15.07,0,.31,0,.63.02.94.05.12,0,.29.19.3.32.01.12.03.23.03.35,0,1.1,0,2.2,0,3.3,0,.12-.02.23-.03.35-.02.15-.16.3-.3.31-.35.02-.7.03-1.06.04-2.63,0-5.26,0-7.89,0-.31,0-.63.02-.94.05-.06,0-.13.09-.16.16-.04.07-.05.15-.05.23,0,1.26,0,2.51,0,3.77,0,.04.01.08.02.12.02.16.15.31.29.32.31.02.63.03.94.03,1.53,0,3.06,0,4.59,0,.27,0,.55.02.82.03.15,0,.3.16.32.3.02.12.04.23.04.35,0,1.1,0,2.2,0,3.3,0,.15-.02.32-.08.46-.04.09-.15.2-.25.21-.27.04-.54.06-.82.06-1.53,0-3.06,0-4.59,0-.31,0-.63.02-.94.03-.16,0-.31.15-.32.28,0,.04-.02.08-.02.12,0,1.29,0,2.59,0,3.88,0,.08.02.16.06.22.04.06.1.15.16.15.35.04.7.08,1.05.08,2.55,0,5.1,0,7.65,0,.39,0,.78.03,1.17.05.11,0,.29.21.3.32,0,.04.01.08.01.12,0,1.33,0,2.67,0,4,0,.2-.18.38-.37.38-.31.01-.63.03-.94.03-4.98,0-9.97,0-14.95,0-.27,0-.55,0-.82-.01-.27,0-.46-.17-.47-.42-.01-.31-.02-.63-.02-.94,0-3.49,0-6.98,0-10.48Z"/>
      <path class="cls-3" d="m281.1,245.56c-.12-.14-.23-.25-.32-.37-.14-.19-.26-.39-.4-.58-.87-1.17-2.05-1.66-3.48-1.56-.48.03-.91.2-1.32.46-.34.23-.56.55-.67.93-.14.48-.06.93.28,1.32.26.3.58.53.92.73.55.31,1.12.55,1.71.77,1.43.53,2.87,1.06,4.29,1.61.55.21,1.09.45,1.62.7.86.41,1.61.97,2.26,1.67,1.1,1.19,1.55,2.6,1.45,4.21-.14,2.08-1.05,3.75-2.64,5.06-1.45,1.2-3.12,1.94-4.97,2.28-1.08.2-2.18.29-3.28.23-1.9-.11-3.72-.52-5.41-1.44-1.67-.91-2.95-2.19-3.82-3.88-.07-.14-.13-.29-.18-.43-.02-.07-.01-.15-.02-.28.16-.08.32-.18.5-.24,1.63-.56,3.26-1.11,4.9-1.66.04-.01.07-.02.11-.03.14-.04.35.02.42.14.15.23.27.48.44.7.3.41.59.84.94,1.2.7.74,1.6,1.12,2.61,1.19.43.03.86.03,1.29,0,.6-.04,1.14-.27,1.6-.66.42-.35.6-.8.58-1.35-.02-.45-.17-.84-.44-1.19-.29-.38-.66-.67-1.06-.92-.54-.33-1.11-.57-1.7-.79-1.43-.53-2.86-1.07-4.29-1.61-.33-.12-.66-.26-.98-.4-2.3-1.07-3.55-2.89-3.82-5.39-.07-.66-.08-1.33.09-1.99.24-.98.73-1.82,1.42-2.54,1.25-1.3,2.75-2.21,4.49-2.68,1.45-.39,2.92-.54,4.43-.34.9.12,1.78.26,2.64.54,1.28.42,2.44,1.06,3.47,1.94.69.59,1.28,1.27,1.71,2.08.06.1.09.21.14.32.05.13-.03.35-.15.4-.14.06-.29.13-.44.18-1.44.51-2.88,1.02-4.32,1.52-.18.06-.37.1-.57.16Z"/>
      <path class="cls-3" d="m86.75,250.8c.07,1.33.11,2.47.2,3.61.04.54.14,1.09.27,1.62.09.38.25.74.43,1.09.33.61.83,1.03,1.5,1.25.81.26,1.61.26,2.42,0,.76-.25,1.27-.76,1.56-1.49.19-.47.32-.97.35-1.48.03-.39.06-.78.11-1.17.04-.34.19-.39.48-.39.39,0,.78.02,1.17.05,1.02.07,2.03.15,3.05.23.35.03.7.08,1.05.13.28.04.44.22.43.47-.09,2.29-.83,4.29-2.53,5.89-.99.93-2.15,1.57-3.45,1.94-1.83.52-3.7.65-5.59.4-.86-.12-1.7-.28-2.52-.56-2.17-.75-3.81-2.13-4.93-4.13-.72-1.28-1.14-2.66-1.39-4.1-.29-1.63-.34-3.28-.22-4.92.12-1.69.43-3.34,1.11-4.91.3-.69.65-1.34,1.08-1.95,1.33-1.87,3.12-3.07,5.34-3.6,1.61-.39,3.24-.53,4.9-.32.98.12,1.94.27,2.87.61,2.08.76,3.65,2.11,4.58,4.14.52,1.12.72,2.31.76,3.54,0,.2-.16.38-.35.41-.12.01-.23.03-.35.03-1.73,0-3.45,0-5.18,0-.12,0-.23-.01-.35-.02-.2-.02-.39-.17-.41-.35-.04-.27-.08-.54-.11-.82-.03-.44-.16-.85-.31-1.25-.11-.29-.27-.57-.44-.83-.89-1.27-2.71-1.39-3.84-.41-.46.4-.74.91-.95,1.47-.27.74-.44,1.51-.51,2.29-.1,1.25-.16,2.5-.22,3.56Z"/>
      <path class="cls-3" d="m237.62,250.69c0-3.45,0-6.9,0-10.36,0-.39.03-.78.05-1.17,0-.14.17-.3.31-.31.15-.02.31-.05.47-.05,1.84,0,3.69,0,5.53,0,.12,0,.23.01.35.02.21.02.39.18.41.36.01.12.03.23.03.35,0,.35,0,.71,0,1.06,0,5.41,0,10.83,0,16.24,0,1.65-.1,1.45,1.45,1.46,2.28.01,4.55,0,6.83,0,.31,0,.63.02.94.03.15,0,.3.16.32.29.01.12.04.23.04.35,0,.98,0,1.96,0,2.94,0,.51-.13.64-.6.66-.27,0-.55,0-.82,0-4.63,0-9.26,0-13.89,0-.35,0-.7-.02-1.06-.04-.14,0-.29-.17-.3-.31-.02-.35-.04-.7-.04-1.06,0-3.49,0-6.98,0-10.47Z"/>
      <path class="cls-3" d="m265.45,250.79c0,3.41,0,6.83,0,10.24,0,.35,0,.71-.02,1.06-.01.33-.17.47-.53.48-.16,0-.31,0-.47,0-1.73,0-3.45,0-5.18,0-.2,0-.39-.02-.59-.03-.15-.01-.31-.16-.32-.29-.02-.35-.04-.7-.04-1.06,0-3.26,0-6.51,0-9.77,0-3.69,0-7.37,0-11.06,0-.35,0-.71.02-1.06.01-.32.18-.47.53-.49.16,0,.31-.01.47-.01,1.73,0,3.45,0,5.18,0,.2,0,.39.02.59.04.14.01.31.17.31.3.02.31.05.62.05.94,0,3.41,0,6.83,0,10.24,0,.16,0,.31,0,.47Z"/>
      <path class="cls-1" d="m350.08,91.03c-.11,3.96-1.28,7.56-3.7,10.71-2.3,2.99-5.27,5-8.89,6.03-5.85,1.4-11.04.11-15.48-3.96-2.93-2.69-4.68-6.06-5.3-9.99-.77-4.91.23-9.44,3.16-13.48,2.21-3.05,5.13-5.14,8.75-6.23,1.24-.37,2.51-.58,3.81-.65,7.32-.39,13.64,4.16,16.27,10.57.7,1.72,1.15,3.5,1.26,5.35.03.55.08,1.09.12,1.64Zm-12.63,1.14c.51-.17,1-.31,1.47-.49,1.78-.67,2.9-1.94,3.38-3.78.21-.81.2-1.63.14-2.46-.08-1.17-.51-2.21-1.22-3.13-.59-.76-1.35-1.31-2.28-1.59-.79-.25-1.6-.39-2.42-.43-.71-.03-1.41-.05-2.12-.05-2.47,0-4.94,0-7.41,0-1.41,0-1.32-.07-1.32,1.36,0,6.2,0,12.4,0,18.59,0,.31.01.63.02.94,0,.22.16.38.37.38,1.14,0,2.27.01,3.41,0,.08,0,.16-.02.22-.06.06-.04.15-.1.16-.16.04-.27.06-.54.06-.82,0-2.08,0-4.16,0-6.24,0-.35,0-.71.02-1.06,0-.27.17-.43.43-.46.59-.06,1.17.02,1.76.07.53.04.99.25,1.38.59.29.26.57.54.8.85.42.56.83,1.15,1.21,1.74.95,1.44,1.88,2.9,2.81,4.34.17.26.35.52.51.79.18.29.42.44.77.44,1.29,0,2.59,0,3.88,0,.12,0,.24-.02.34-.06.06-.02.12-.12.11-.18-.02-.11-.06-.23-.12-.33-1.1-1.81-2.19-3.62-3.31-5.42-.75-1.21-1.67-2.28-2.86-3.08-.09-.06-.13-.18-.21-.29Z"/>
      <path class="cls-2" d="m66.97,244.7c.21.05.28.19.31.35.24,1.15.48,2.3.73,3.45.29,1.38.59,2.76.87,4.14.04.19.05.39.07.58,0,.08-.13.25-.21.26-.04,0-.07.03-.11.03-1.17,0-2.35,0-3.52,0-.2,0-.35-.2-.32-.4.01-.08.02-.16.03-.23.01-.08.03-.15.05-.23.62-2.39,1.24-4.77,1.86-7.16.07-.26.16-.52.24-.77Z"/>
      <path class="cls-2" d="m134.37,253.54c-.58-.02-1.17-.05-1.75-.07-.08,0-.22-.17-.21-.25.01-.12.02-.24.05-.35.2-.79.42-1.59.62-2.38.47-1.82.94-3.63,1.42-5.45.03-.1.1-.2.17-.29.01-.02.1-.02.11,0,.05.1.11.2.14.31.39,1.83.78,3.67,1.17,5.5.13.61.27,1.22.39,1.83.05.27.07.54.1.81,0,.07-.14.25-.22.25-.15.02-.31.05-.46.06-.51,0-1.02,0-1.53,0,0,0,0,.02,0,.02Z"/>
      <path class="cls-3" d="m337.45,92.17c.08.11.13.23.21.29,1.2.8,2.11,1.87,2.86,3.08,1.12,1.8,2.21,3.61,3.31,5.42.06.1.11.21.12.33,0,.06-.06.16-.11.18-.11.04-.23.06-.34.06-1.29,0-2.59,0-3.88,0-.35,0-.59-.15-.77-.44-.16-.27-.34-.53-.51-.79-.94-1.45-1.87-2.9-2.81-4.34-.39-.59-.79-1.17-1.21-1.74-.23-.31-.51-.6-.8-.85-.39-.34-.85-.55-1.38-.59-.59-.05-1.17-.13-1.76-.07-.26.03-.42.19-.43.46-.01.35-.02.71-.02,1.06,0,2.08,0,4.16,0,6.24,0,.27-.03.55-.06.82,0,.06-.09.13-.16.16-.07.04-.15.06-.22.06-1.14,0-2.27,0-3.41,0-.21,0-.36-.16-.37-.38-.01-.31-.02-.63-.02-.94,0-6.2,0-12.4,0-18.59,0-1.43-.09-1.36,1.32-1.36,2.47,0,4.94,0,7.41,0,.71,0,1.41.02,2.12.05.83.04,1.63.18,2.42.43.93.29,1.68.83,2.28,1.59.71.92,1.14,1.97,1.22,3.13.06.82.07,1.64-.14,2.46-.48,1.84-1.6,3.11-3.38,3.78-.47.18-.96.32-1.47.49Zm-4.59-8.27h0c-.74-.01-1.49-.02-2.23-.01-.16,0-.31.01-.47.05-.06.01-.15.09-.16.15-.04.19-.07.39-.07.58,0,1.25,0,2.51,0,3.76,0,.16.02.31.04.47.01.14.17.27.32.28.08,0,.16.02.23.02,1.37,0,2.74,0,4.11-.02.55-.01,1.09-.09,1.63-.18.79-.13,1.34-.59,1.66-1.34.27-.64.29-1.3.12-1.96-.22-.87-.78-1.44-1.67-1.63-.42-.09-.85-.15-1.28-.16-.74-.03-1.49,0-2.23,0Z"/>
      <path class="cls-1" d="m332.85,83.9c.74,0,1.49-.02,2.23,0,.43.01.86.07,1.28.16.89.2,1.44.77,1.67,1.63.17.66.15,1.32-.12,1.96-.31.74-.86,1.2-1.66,1.34-.54.09-1.09.17-1.63.18-1.37.03-2.74.02-4.11.02-.08,0-.16-.01-.23-.02-.15-.01-.31-.15-.32-.28-.01-.16-.04-.31-.04-.47,0-1.25,0-2.51,0-3.76,0-.19.03-.39.07-.58.01-.06.1-.14.16-.15.15-.03.31-.05.47-.05.74,0,1.49,0,2.23,0h0Z"/>
    </g>
  </g>
</svg>